<svg xmlns="http://www.w3.org/2000/svg" width="128" height="128" viewBox="0 0 128 128">
  <g class="icon-heart" transform="translate(-169 -15)">
    <rect id="矩形_320" data-name="矩形 320" width="128" height="128" transform="translate(169 15)" fill="#f6f6f6"/>
    <path id="路径_142" class='icon-heart__stroke' data-name="路径 142" d="M11.279-46.387a40.709,40.709,0,0,0,5.2,19.507,77,77,0,0,0,14.746,18.8A148.236,148.236,0,0,0,53.662,9.375,15.607,15.607,0,0,0,55.713,10.5a4.7,4.7,0,0,0,1.9.488A4.539,4.539,0,0,0,59.5,10.5a16.422,16.422,0,0,0,2.026-1.123A146.09,146.09,0,0,0,83.984-8.081,77.8,77.8,0,0,0,98.73-26.88a40.561,40.561,0,0,0,5.225-19.507,31.282,31.282,0,0,0-2.026-11.45,27.363,27.363,0,0,0-5.64-9.009,25.258,25.258,0,0,0-8.447-5.884,26.33,26.33,0,0,0-10.5-2.075A23.515,23.515,0,0,0,65.771-72a23.071,23.071,0,0,0-8.154,7.4,23.47,23.47,0,0,0-8.154-7.373A23.453,23.453,0,0,0,37.842-74.8a26.33,26.33,0,0,0-10.5,2.075A25.258,25.258,0,0,0,18.9-66.846a27.042,27.042,0,0,0-5.615,9.009A31.623,31.623,0,0,0,11.279-46.387Zm8.545,0A21.866,21.866,0,0,1,22.217-56.86a17.87,17.87,0,0,1,6.519-6.982,17.607,17.607,0,0,1,9.351-2.515,16.819,16.819,0,0,1,7.349,1.489,17.891,17.891,0,0,1,5.249,3.735,36.137,36.137,0,0,1,3.662,4.443,7.681,7.681,0,0,0,1.66,1.953,2.664,2.664,0,0,0,1.611.537,2.46,2.46,0,0,0,1.563-.537,9.274,9.274,0,0,0,1.66-1.953,41.221,41.221,0,0,1,3.784-4.419,19.218,19.218,0,0,1,5.2-3.735A16.116,16.116,0,0,1,77.1-66.357a17.7,17.7,0,0,1,9.4,2.515,17.87,17.87,0,0,1,6.519,6.982A21.866,21.866,0,0,1,95.41-46.387a29.742,29.742,0,0,1-3,12.671,58.919,58.919,0,0,1-8.179,12.646A100.778,100.778,0,0,1,72.412-9.131,146.511,146.511,0,0,1,58.5,1.465a2.5,2.5,0,0,1-.879.439,2.5,2.5,0,0,1-.879-.439A140.873,140.873,0,0,1,42.8-9.131,101.781,101.781,0,0,1,31.006-21.069a58.919,58.919,0,0,1-8.179-12.646A29.742,29.742,0,0,1,19.824-46.387Z" transform="translate(176.721 111.805)" fill="#333"/>
    <path id="路径_142-2" class='icon-heart__fill' data-name="路径 142" d="M529.494,1582.446a40.71,40.71,0,0,0,5.2,19.507,77.016,77.016,0,0,0,14.746,18.8,148.245,148.245,0,0,0,22.437,17.455,15.742,15.742,0,0,0,2.051,1.125,4.722,4.722,0,0,0,1.9.488,4.543,4.543,0,0,0,1.887-.488,16.6,16.6,0,0,0,2.026-1.123,146.082,146.082,0,0,0,22.458-17.458,77.806,77.806,0,0,0,14.746-18.8,40.566,40.566,0,0,0,5.225-19.507,31.282,31.282,0,0,0-2.026-11.45,27.35,27.35,0,0,0-5.64-9.009,25.237,25.237,0,0,0-8.447-5.884,26.309,26.309,0,0,0-10.5-2.075,23.516,23.516,0,0,0-11.571,2.805,23.061,23.061,0,0,0-8.154,7.4,23.355,23.355,0,0,0-19.775-10.2,26.309,26.309,0,0,0-10.5,2.075,25.243,25.243,0,0,0-8.442,5.879A27.022,27.022,0,0,0,531.5,1571,31.6,31.6,0,0,0,529.494,1582.446Z" transform="translate(-341.492 -1517.024)" fill="rgba(193,39,45,0)"/>
  </g>
</svg>
