<svg xmlns="http://www.w3.org/2000/svg" width="128" height="128" viewBox="0 0 128 128">
  <g id="icon-role-owner" transform="translate(-761 -647)">
    <rect id="矩形_320" data-name="矩形 320" width="128" height="128" transform="translate(761 647)" fill="#f6f6f6"/>
    <path id="路径_140" data-name="路径 140" d="M-42.653-35.174a10.92,10.92,0,0,0,5.728-1.55,11.685,11.685,0,0,0,4.11-4.133,11.043,11.043,0,0,0,1.527-5.728,10.96,10.96,0,0,0-1.527-5.683,11.685,11.685,0,0,0-4.11-4.133,10.92,10.92,0,0,0-5.728-1.55A11.038,11.038,0,0,0-48.4-56.4a11.686,11.686,0,0,0-4.133,4.11,10.924,10.924,0,0,0-1.527,5.705,10.92,10.92,0,0,0,1.55,5.728,11.872,11.872,0,0,0,4.133,4.133A10.92,10.92,0,0,0-42.653-35.174Zm43.8-17.744a10.8,10.8,0,0,0,5.705-1.55,11.935,11.935,0,0,0,4.11-4.133,11,11,0,0,0,1.55-5.772,10.757,10.757,0,0,0-1.55-5.638,11.935,11.935,0,0,0-4.11-4.133,10.8,10.8,0,0,0-5.705-1.55,11.043,11.043,0,0,0-5.728,1.527,11.685,11.685,0,0,0-4.133,4.11,10.838,10.838,0,0,0-1.55,5.683A11,11,0,0,0-8.715-58.6a11.872,11.872,0,0,0,4.133,4.133A10.92,10.92,0,0,0,1.146-52.918ZM44.9-35.174a10.92,10.92,0,0,0,5.728-1.55,11.872,11.872,0,0,0,4.133-4.133,10.92,10.92,0,0,0,1.55-5.728,10.8,10.8,0,0,0-1.55-5.705,11.935,11.935,0,0,0-4.133-4.11,10.92,10.92,0,0,0-5.728-1.55,10.838,10.838,0,0,0-5.683,1.55,11.872,11.872,0,0,0-4.133,4.133,10.838,10.838,0,0,0-1.55,5.683,10.92,10.92,0,0,0,1.55,5.728,11.872,11.872,0,0,0,4.133,4.133A10.838,10.838,0,0,0,44.9-35.174Zm-87.553-7.1a4.122,4.122,0,0,1-3.055-1.28,4.181,4.181,0,0,1-1.258-3.032,4.085,4.085,0,0,1,1.258-3.032,4.2,4.2,0,0,1,3.055-1.235,4.107,4.107,0,0,1,3.01,1.258,4.107,4.107,0,0,1,1.258,3.01,4.22,4.22,0,0,1-1.235,3.032A4.05,4.05,0,0,1-42.653-42.271Zm43.8-17.744A4.144,4.144,0,0,1-1.887-61.3a4.2,4.2,0,0,1-1.28-3.077,4,4,0,0,1,1.28-2.987A4.22,4.22,0,0,1,1.146-68.6a4.107,4.107,0,0,1,3.01,1.258,4.056,4.056,0,0,1,1.258,2.965A4.273,4.273,0,0,1,4.178-61.3,4.05,4.05,0,0,1,1.146-60.016ZM44.9-42.271a4.05,4.05,0,0,1-3.032-1.28,4.22,4.22,0,0,1-1.235-3.032,4.107,4.107,0,0,1,1.258-3.01,4.107,4.107,0,0,1,3.01-1.258,4.22,4.22,0,0,1,3.032,1.235,4.05,4.05,0,0,1,1.28,3.032,4.144,4.144,0,0,1-1.28,3.032A4.144,4.144,0,0,1,44.9-42.271ZM-37.8-38l13.7,8.311a8.518,8.518,0,0,0,5.368,1.1A7.253,7.253,0,0,0-13.5-31.8L2.763-53.637l-6.783-2.92L-18.665-36.791a2.363,2.363,0,0,1-1.213.876,2.326,2.326,0,0,1-1.662-.472l-12.443-7.727Zm77.895,0-3.773-6.109-12.4,7.637a2.614,2.614,0,0,1-1.774.539,1.962,1.962,0,0,1-1.235-.988L6.312-56.557l-6.783,2.92L15.88-31.715a7.2,7.2,0,0,0,5.144,3.189,7.981,7.981,0,0,0,5.144-.988ZM-32.366-6.693H34.612v-7.187H-32.366ZM-43.1-37.016l8.715,35.578a14.588,14.588,0,0,0,4.223,7.727Q-27.2,8.895-21.81,8.895H24.1q5.346,0,8.311-2.605a14.588,14.588,0,0,0,4.223-7.727l8.715-35.578L38.7-40.025l-9.164,37.6a5.013,5.013,0,0,1-5.391,4.133H-21.9q-4.357,0-5.346-4.133l-9.164-37.6Z" transform="translate(824.064 744.693)" fill="#333"/>
  </g>
</svg>
