<?xml version="1.0" encoding="utf-8"?>
<!-- Generator: Adobe Illustrator 23.1.1, SVG Export Plug-In . SVG Version: 6.00 Build 0)  -->
<svg version="1.1" id="图层_1" xmlns="http://www.w3.org/2000/svg" xmlns:xlink="http://www.w3.org/1999/xlink" x="0px" y="0px"
	 viewBox="0 0 64 64" style="enable-background:new 0 0 64 64;" xml:space="preserve">
<path d="M52.1,34.4l-18-19.9c-0.5-0.6-1.3-1-2.1-1c-0.8,0-1.6,0.3-2.1,1l-18,19.9c-0.4,0.4-0.3,1.1,0.1,1.4c0.4,0.3,1,0.3,1.4-0.1
	l4.3-4.8v16.3c0,1.7,1.4,3.1,3.1,3.1h22.4c1.7,0,3.1-1.4,3.1-3.1V31l4.3,4.8c0.4,0.4,1,0.4,1.4,0.1C52.4,35.5,52.5,34.9,52.1,34.4
	L52.1,34.4z M36.1,48.4h-8.1v-9.2c0-0.6,0.5-1,1-1H35c0.6,0,1,0.5,1,1V48.4z M44.2,47.3c0,0.6-0.5,1-1,1h-5.1v-9.2
	c0-1.7-1.4-3.1-3.1-3.1h-6.1c-1.7,0-3.1,1.4-3.1,3.1v9.2h-5.1c-0.6,0-1-0.5-1-1V28.8l11.6-12.8c0.2-0.2,0.4-0.3,0.6-0.3
	c0.2,0,0.4,0.1,0.6,0.3l11.6,12.8V47.3L44.2,47.3z"/>
</svg>
