<svg xmlns="http://www.w3.org/2000/svg" width="128" height="128" viewBox="0 0 128 128">
  <g id="icon-heading" transform="translate(-465 -489)">
    <rect id="矩形_320" data-name="矩形 320" width="128" height="128" transform="translate(465 489)" fill="#f6f6f6"/>
    <path id="路径_181" data-name="路径 181" d="M69.578,28.507a7.344,7.344,0,0,0,5.939-2.413,9.727,9.727,0,0,0,2.041-6.5V-39.6H98.064a6.593,6.593,0,0,0,4.732-1.763A6.1,6.1,0,0,0,104.652-46,6.07,6.07,0,0,0,102.8-50.69a6.7,6.7,0,0,0-4.732-1.717H41.369a6.7,6.7,0,0,0-4.732,1.717A6.07,6.07,0,0,0,34.781-46a6.1,6.1,0,0,0,1.856,4.64A6.593,6.593,0,0,0,41.369-39.6H61.69V19.6a9.918,9.918,0,0,0,1.995,6.449A7.141,7.141,0,0,0,69.578,28.507Z" transform="translate(459.219 565.406)" fill="#333"/>
  </g>
</svg>
