<svg xmlns="http://www.w3.org/2000/svg" width="128" height="128" viewBox="0 0 128 128">
  <g id="icon-home" transform="translate(-317 -647)">
    <rect id="矩形_320" data-name="矩形 320" width="128" height="128" transform="translate(317 647)" fill="#f6f6f6"/>
    <path id="路径_157" data-name="路径 157" d="M-11.6,10.172H13.945V-21.984a3.406,3.406,0,0,0-.914-2.484,3.279,3.279,0,0,0-2.461-.937h-18.7a3.439,3.439,0,0,0-2.508.938,3.313,3.313,0,0,0-.961,2.484Zm-17.391,5.25h60q4.922,0,7.664-2.7A10.006,10.006,0,0,0,41.414,5.25V-43.828l-8.062-5.484V2.953a4.5,4.5,0,0,1-1.1,3.281,4.3,4.3,0,0,1-3.211,1.125H-27.023a4.311,4.311,0,0,1-3.187-1.125,4.446,4.446,0,0,1-1.125-3.281V-49.312l-8.016,5.484V5.25a10.055,10.055,0,0,0,2.719,7.477Q-33.914,15.422-28.992,15.422ZM-52.477-34.359a3.846,3.846,0,0,0,1.148,2.742,4.12,4.12,0,0,0,3.117,1.2,4,4,0,0,0,1.852-.445,6.926,6.926,0,0,0,1.57-1.1L-.539-69.047A2.677,2.677,0,0,1,1.2-69.773a2.549,2.549,0,0,1,1.781.727L47.086-31.969a9.723,9.723,0,0,0,1.641,1.1,3.954,3.954,0,0,0,1.875.445,4.419,4.419,0,0,0,2.953-1.031,3.49,3.49,0,0,0,1.219-2.812,4.225,4.225,0,0,0-1.547-3.375L7.055-76.406a8.768,8.768,0,0,0-5.836-2.3,8.943,8.943,0,0,0-5.883,2.3L-50.836-37.641A4.126,4.126,0,0,0-52.477-34.359ZM29.414-55.266l12,10.125V-66.187a3.151,3.151,0,0,0-.891-2.367,3.216,3.216,0,0,0-2.344-.867H32.7a3.3,3.3,0,0,0-2.367.867,3.107,3.107,0,0,0-.914,2.367Z" transform="translate(379.477 742.703)" fill="#333"/>
  </g>
</svg>
