<svg xmlns="http://www.w3.org/2000/svg" width="128" height="128" viewBox="0 0 128 128">
  <g id="icon-unorder-list" transform="translate(-613 -489)">
    <rect id="矩形_320" data-name="矩形 320" width="128" height="128" transform="translate(613 489)" fill="#f6f6f6"/>
    <path id="路径_129" data-name="路径 129" d="M37.594-55.078H97.922a3.776,3.776,0,0,0,2.813-1.148,3.838,3.838,0,0,0,1.125-2.789,3.838,3.838,0,0,0-1.125-2.789,3.776,3.776,0,0,0-2.812-1.148H37.594a3.874,3.874,0,0,0-2.859,1.125,3.816,3.816,0,0,0-1.125,2.813,3.838,3.838,0,0,0,1.125,2.789A3.832,3.832,0,0,0,37.594-55.078Zm0,54.094H97.922a3.816,3.816,0,0,0,2.813-1.125,3.816,3.816,0,0,0,1.125-2.812,3.838,3.838,0,0,0-1.125-2.789,3.776,3.776,0,0,0-2.812-1.148H37.594a3.832,3.832,0,0,0-2.859,1.148,3.838,3.838,0,0,0-1.125,2.789,3.816,3.816,0,0,0,1.125,2.813A3.874,3.874,0,0,0,37.594-.984Zm0-27.047H97.922a3.776,3.776,0,0,0,2.813-1.148,3.838,3.838,0,0,0,1.125-2.789,3.838,3.838,0,0,0-1.125-2.789,3.776,3.776,0,0,0-2.812-1.148H37.594a3.832,3.832,0,0,0-2.859,1.148,3.838,3.838,0,0,0-1.125,2.789,3.838,3.838,0,0,0,1.125,2.789A3.832,3.832,0,0,0,37.594-28.031ZM17.3,1.078A5.781,5.781,0,0,0,21.539-.68,5.781,5.781,0,0,0,23.3-4.922a5.727,5.727,0,0,0-1.758-4.2A5.781,5.781,0,0,0,17.3-10.875a5.781,5.781,0,0,0-4.242,1.758,5.727,5.727,0,0,0-1.758,4.2A5.781,5.781,0,0,0,13.055-.68,5.781,5.781,0,0,0,17.3,1.078Zm0-27.094a5.82,5.82,0,0,0,4.242-1.734A5.7,5.7,0,0,0,23.3-31.969a5.727,5.727,0,0,0-1.758-4.2A5.781,5.781,0,0,0,17.3-37.922a5.781,5.781,0,0,0-4.242,1.758,5.727,5.727,0,0,0-1.758,4.2,5.7,5.7,0,0,0,1.758,4.219A5.82,5.82,0,0,0,17.3-26.016Zm0-27.047A5.82,5.82,0,0,0,21.539-54.8,5.7,5.7,0,0,0,23.3-59.016a5.781,5.781,0,0,0-1.758-4.242A5.781,5.781,0,0,0,17.3-65.016a5.781,5.781,0,0,0-4.242,1.758A5.781,5.781,0,0,0,11.3-59.016,5.7,5.7,0,0,0,13.055-54.8,5.82,5.82,0,0,0,17.3-53.062Z" transform="translate(620.703 585.016)" fill="#333"/>
  </g>
</svg>
