<svg xmlns="http://www.w3.org/2000/svg" width="128" height="128" viewBox="0 0 128 128">
  <g id="icon-book-opened" transform="translate(-465 -331)">
    <rect id="矩形_320" data-name="矩形 320" width="128" height="128" transform="translate(465 331)" fill="#f6f6f6"/>
    <path id="路径_120" data-name="路径 120" d="M61.125-66a18.828,18.828,0,0,0-5.32-4.266,33.817,33.817,0,0,0-7.922-3.187,36.178,36.178,0,0,0-9.539-1.219A37.078,37.078,0,0,0,28.875-73.5a36.023,36.023,0,0,0-8.039,3.117,27.283,27.283,0,0,0-6.047,4.336A14.871,14.871,0,0,0,11.3-61.172V5.391q0,3.047,1.664,4.313a6.211,6.211,0,0,0,3.867,1.266,6.846,6.846,0,0,0,2.719-.469A12.549,12.549,0,0,0,21.7,9.281a25.382,25.382,0,0,1,3.8-2.508,24.029,24.029,0,0,1,5.414-2.086,29.032,29.032,0,0,1,7.43-.844,32.9,32.9,0,0,1,7.734.82A26.354,26.354,0,0,1,51.8,6.68a20.637,20.637,0,0,1,3.656,2.273,9.373,9.373,0,0,0,2.3,1.43,8.332,8.332,0,0,0,3.375.586ZM20.016-58.5a9.166,9.166,0,0,1,2.93-3.352,21.8,21.8,0,0,1,6.281-3.3,26.934,26.934,0,0,1,9.117-1.406,27.5,27.5,0,0,1,9.211,1.406,22.07,22.07,0,0,1,6.352,3.3A8.161,8.161,0,0,1,56.766-58.5V.938A24.908,24.908,0,0,0,48.539-2.93a37.9,37.9,0,0,0-10.2-1.336A36.858,36.858,0,0,0,28.219-2.906a24.189,24.189,0,0,0-8.2,3.984ZM61.125-66V10.969a7.366,7.366,0,0,0,3.375-.656q1.266-.656,2.344-1.359a25.215,25.215,0,0,1,3.7-2.227,27.322,27.322,0,0,1,5.672-2.039,31.444,31.444,0,0,1,7.688-.844A25.88,25.88,0,0,1,94.359,5.625a27.1,27.1,0,0,1,6.234,3.656A11.144,11.144,0,0,0,102.7,10.5a6.987,6.987,0,0,0,2.766.469A6.239,6.239,0,0,0,109.313,9.7Q111,8.438,111,5.391V-61.172a15.7,15.7,0,0,0-3.516-4.875,26.753,26.753,0,0,0-6.023-4.336A36.023,36.023,0,0,0,93.422-73.5a37.271,37.271,0,0,0-9.516-1.172,36.178,36.178,0,0,0-9.539,1.219,33.353,33.353,0,0,0-7.9,3.188A19.659,19.659,0,0,0,61.125-66Zm41.109,7.5V1.078a23.649,23.649,0,0,0-8.18-3.984A37.11,37.11,0,0,0,83.906-4.266,37.644,37.644,0,0,0,73.734-2.93,25.49,25.49,0,0,0,65.484.938V-58.5a8.657,8.657,0,0,1,2.883-3.352,21.7,21.7,0,0,1,6.328-3.3,27.5,27.5,0,0,1,9.211-1.406,27.14,27.14,0,0,1,9.141,1.406,21.75,21.75,0,0,1,6.3,3.3A8.657,8.657,0,0,1,102.234-58.5Z" transform="translate(469 428)" fill="#333"/>
  </g>
</svg>
