<?xml version="1.0" encoding="utf-8"?>
<!-- Generator: Adobe Illustrator 23.1.1, SVG Export Plug-In . SVG Version: 6.00 Build 0)  -->
<svg version="1.1" id="图层_1" xmlns="http://www.w3.org/2000/svg" xmlns:xlink="http://www.w3.org/1999/xlink" x="0px" y="0px"
	 viewBox="0 0 64 64" style="enable-background:new 0 0 64 64;" xml:space="preserve">
<path d="M38.1,30.3h-10v2h10V30.3z M28.1,44.7h10v-2h-10V44.7z M28.1,38.5h14.1v-2H28.1V38.5z M49.2,25.2v-0.5l-8.3-8.3h-0.5l0,0
	l0,0H24.7c-2.3,0-4.1,1.8-4.1,4.1v27.1c0,2.3,1.8,4.1,4.1,4.1H45c2.3,0,4.1-1.8,4.1-4.1V25.4L49.2,25.2L49.2,25.2z M40.9,19.4
	l5.3,5.3h-5.3V19.4z M47.1,47.8c0,1.2-0.9,2-2,2H24.7c-1.2,0-2-0.9-2-2V20.7c0-1.2,0.9-2,2-2h14.1V27h8.3V47.8L47.1,47.8z"/>
<path d="M18.5,44.8C18.2,44.5,18,44,18,43.6V16.5c0-1.2,0.9-2,2-2h13.8h0.4h4.3l-2.2-2.2h-0.5H20c-2.3,0-4.1,1.8-4.1,4.1v27.1
	c0,1.7,1.1,3.2,2.6,3.9C18.5,47.3,18.5,44.8,18.5,44.8z"/>
</svg>
