<svg xmlns="http://www.w3.org/2000/svg" width="128" height="128" viewBox="0 0 128 128">
  <g id="icon-bold" transform="translate(-21 -489)">
    <rect id="矩形_320" data-name="矩形 320" width="128" height="128" transform="translate(21 489)" fill="#f6f6f6"/>
    <path id="路径_130" data-name="路径 130" d="M19.824-.049H44.141A29.543,29.543,0,0,0,56.47-2.417a18.87,18.87,0,0,0,8.081-6.665,17.634,17.634,0,0,0,2.881-10.059,15.584,15.584,0,0,0-2.075-8.032,15.687,15.687,0,0,0-5.688-5.664,18.053,18.053,0,0,0-8.35-2.368V-35.6a15.02,15.02,0,0,0,9.424-4.736,13.621,13.621,0,0,0,3.613-9.521,14.877,14.877,0,0,0-5.591-12.256Q53.174-66.6,43.408-66.6H19.824a7.967,7.967,0,0,0-5.933,2.148A8.242,8.242,0,0,0,11.768-58.4V-8.252A8.242,8.242,0,0,0,13.892-2.2,7.967,7.967,0,0,0,19.824-.049Zm8.008-11.084V-29.248H38.721q5.957,0,9.18,2.295a7.7,7.7,0,0,1,3.223,6.689,8,8,0,0,1-3.076,6.812q-3.076,2.319-8.936,2.319Zm0-27.93V-55.42h10.6q4.785,0,7.471,2.1a7.016,7.016,0,0,1,2.686,5.859,7.27,7.27,0,0,1-2.979,6.177q-2.979,2.222-8.2,2.222Z" transform="translate(45.232 586.602)" fill="#333"/>
  </g>
</svg>
