<svg xmlns="http://www.w3.org/2000/svg" width="128" height="128" viewBox="0 0 128 128">
  <g id="icon-public" transform="translate(-613 -15)">
    <rect id="矩形_320" data-name="矩形 320" width="128" height="128" transform="translate(613 15)" fill="#f6f6f6"/>
    <path id="路径_138" data-name="路径 138" d="M55.713,10.84a14.616,14.616,0,0,0,9.131-3.3,28.777,28.777,0,0,0,7.471-9.277,56.1,56.1,0,0,0,5.078-14.014,77.738,77.738,0,0,0,1.855-17.5,79.392,79.392,0,0,0-1.831-17.554,54.777,54.777,0,0,0-5.078-14.062,29.335,29.335,0,0,0-7.5-9.3,14.55,14.55,0,0,0-9.131-3.32,14.55,14.55,0,0,0-9.131,3.32,29.067,29.067,0,0,0-7.471,9.3,54.777,54.777,0,0,0-5.029,14.063,80.423,80.423,0,0,0-1.807,17.554,79.755,79.755,0,0,0,1.807,17.5A54.845,54.845,0,0,0,39.111-1.733a28.614,28.614,0,0,0,7.5,9.277A14.651,14.651,0,0,0,55.713,10.84Zm0-82.471a9.07,9.07,0,0,1,6.47,3.076,28.215,28.215,0,0,1,5.444,8.423,58.089,58.089,0,0,1,3.784,12.256A73.964,73.964,0,0,1,72.8-33.252a73.187,73.187,0,0,1-1.392,14.478A58.089,58.089,0,0,1,67.627-6.519,28.215,28.215,0,0,1,62.183,1.9a9.07,9.07,0,0,1-6.47,3.076A9.141,9.141,0,0,1,49.292,1.9,27.653,27.653,0,0,1,43.8-6.519a58.09,58.09,0,0,1-3.784-12.256,73.187,73.187,0,0,1-1.392-14.478,73.964,73.964,0,0,1,1.392-14.624A58.09,58.09,0,0,1,43.8-60.132a27.653,27.653,0,0,1,5.493-8.423A9.141,9.141,0,0,1,55.713-71.631Zm-3.125-5.225V9.961h6.3V-76.855ZM55.713-16.7a74.3,74.3,0,0,0-13.574,1.2,55.679,55.679,0,0,0-11.572,3.369,29.305,29.305,0,0,0-8.35,5.1l4.785,4a28.355,28.355,0,0,1,7.373-4.028,48.648,48.648,0,0,1,9.692-2.49A74.558,74.558,0,0,1,55.713-10.4a74.9,74.9,0,0,1,11.694.854A48.648,48.648,0,0,1,77.1-7.056a27.507,27.507,0,0,1,7.324,4.028l4.785-4a28.556,28.556,0,0,0-8.3-5.1A55.679,55.679,0,0,0,69.336-15.5,74.582,74.582,0,0,0,55.713-16.7Zm42.48-19.775H13.281v6.25H98.193ZM55.713-49.8a76.093,76.093,0,0,0,13.623-1.172,53.763,53.763,0,0,0,11.572-3.369,28.938,28.938,0,0,0,8.3-5.127l-4.785-3.955a28.908,28.908,0,0,1-7.324,4,46.527,46.527,0,0,1-9.692,2.49,77.06,77.06,0,0,1-11.694.83,76.225,76.225,0,0,1-11.621-.83,47.063,47.063,0,0,1-9.692-2.49,29.72,29.72,0,0,1-7.4-4l-4.785,3.955a29.7,29.7,0,0,0,8.35,5.127,53.763,53.763,0,0,0,11.572,3.369A75.805,75.805,0,0,0,55.713-49.8Zm0,63.916a45.553,45.553,0,0,0,18.359-3.735A48.6,48.6,0,0,0,89.209.1,48.338,48.338,0,0,0,99.463-15.015a45.638,45.638,0,0,0,3.711-18.335,45.638,45.638,0,0,0-3.711-18.335A48.427,48.427,0,0,0,89.185-66.821,48.347,48.347,0,0,0,74.023-77.1a45.811,45.811,0,0,0-18.359-3.711A45.571,45.571,0,0,0,37.4-77.1,48.347,48.347,0,0,0,22.241-66.821,48.427,48.427,0,0,0,11.963-51.685,45.638,45.638,0,0,0,8.252-33.35a45.381,45.381,0,0,0,3.735,18.335A48.686,48.686,0,0,0,22.266.1,48.6,48.6,0,0,0,37.4,10.376,45.434,45.434,0,0,0,55.713,14.111Zm0-6.934A38.872,38.872,0,0,1,40.088,4,41.634,41.634,0,0,1,27.148-4.761,40.718,40.718,0,0,1,18.384-17.7,39.306,39.306,0,0,1,15.234-33.35a39.131,39.131,0,0,1,3.149-15.625,41.083,41.083,0,0,1,8.765-12.939A41.51,41.51,0,0,1,40.063-70.7a38.7,38.7,0,0,1,15.6-3.174A38.992,38.992,0,0,1,71.338-70.7a41.428,41.428,0,0,1,12.939,8.789,41.428,41.428,0,0,1,8.789,12.939A38.872,38.872,0,0,1,96.24-33.35,39.045,39.045,0,0,1,93.066-17.7,41.259,41.259,0,0,1,84.3-4.761,41.259,41.259,0,0,1,71.362,4,39.045,39.045,0,0,1,55.713,7.178Z" transform="translate(623 112.811)" fill="#333"/>
  </g>
</svg>
