<svg xmlns="http://www.w3.org/2000/svg" width="128" height="128" viewBox="0 0 128 128">
  <g id="icon-focus" transform="translate(-169 -647)">
    <rect id="矩形_320" data-name="矩形 320" width="128" height="128" transform="translate(169 647)" fill="#f6f6f6"/>
    <g id="组_266" data-name="组 266" transform="translate(371.469 -762.853)">
      <path id="路径_152" data-name="路径 152" d="M-116.063,1482.991a24.134,24.134,0,0,0,1.9-9.562,23.484,23.484,0,0,0-1.922-9.445,24.833,24.833,0,0,0-5.32-7.8,25.293,25.293,0,0,0-7.828-5.3,23.471,23.471,0,0,0-9.445-1.922,23.861,23.861,0,0,0-9.568,1.916,25.215,25.215,0,0,0-7.852,5.3,25.224,25.224,0,0,0-5.344,7.781,23.163,23.163,0,0,0-1.945,9.469,23.809,23.809,0,0,0,3.328,12.4,25.327,25.327,0,0,0,8.953,8.953,23.815,23.815,0,0,0,12.422,3.347,23.4,23.4,0,0,0,9.469-1.941,25.373,25.373,0,0,0,7.852-5.344A24.7,24.7,0,0,0-116.063,1482.991Zm-6.688-18.778a17.5,17.5,0,0,1,2.18,5.58,3.854,3.854,0,0,0-1.475-.237h-5.03a11.672,11.672,0,0,0-1.013-2.225,12.8,12.8,0,0,0-4.477-4.477,11.737,11.737,0,0,0-2.18-.99v-4.917a3.965,3.965,0,0,0-.237-1.536,17.732,17.732,0,0,1,5.505,2.122A19.129,19.129,0,0,1-122.751,1464.213Zm-32.011,0a18.989,18.989,0,0,1,6.773-6.68,18.076,18.076,0,0,1,5.609-2.133,4.028,4.028,0,0,0-.249,1.547v4.853a11.948,11.948,0,0,0-2.313,1.051,12.989,12.989,0,0,0-4.5,4.477,11.555,11.555,0,0,0-1.057,2.228h-4.782a3.921,3.921,0,0,0-1.676.317A17.49,17.49,0,0,1-154.762,1464.213Zm0,18.563a17.881,17.881,0,0,1-2.155-5.548,3.922,3.922,0,0,0,1.636.3h4.805a11.736,11.736,0,0,0,1.034,2.179,13.183,13.183,0,0,0,4.5,4.5,11.9,11.9,0,0,0,2.313,1.067v4.911a3.966,3.966,0,0,0,.243,1.5,17.928,17.928,0,0,1-5.626-2.159A19.135,19.135,0,0,1-154.762,1482.776Zm25.311,6.726a17.479,17.479,0,0,1-5.541,2.173,3.937,3.937,0,0,0,.246-1.494v-4.973a11.6,11.6,0,0,0,2.179-1,13.006,13.006,0,0,0,4.477-4.5,11.865,11.865,0,0,0,1.02-2.182h5.024a3.857,3.857,0,0,0,1.433-.226,17.808,17.808,0,0,1-2.138,5.454A19.526,19.526,0,0,1-129.451,1489.5Z" fill="#333"/>
      <path id="路径_153" data-name="路径 153" d="M-157.39,1509.213h-10.453a6.671,6.671,0,0,1-4.852-1.664,6.734,6.734,0,0,1-1.711-5.04v-10.172q0-4.078-4.031-4.078t-4.031,4.078v10.781q0,7.031,3.609,10.57t10.688,3.54h10.781q4.125,0,4.125-3.984Q-153.265,1509.212-157.39,1509.213Z" fill="#333"/>
      <path id="路径_154" data-name="路径 154" d="M-178.437,1458.868q4.03,0,4.031-4.078v-10.218a6.663,6.663,0,0,1,1.711-4.992,6.672,6.672,0,0,1,4.852-1.664h10.453q4.125,0,4.125-4.031t-4.125-4.031h-10.781q-7.078,0-10.687,3.563t-3.609,10.547v10.828Q-182.469,1458.868-178.437,1458.868Z" fill="#333"/>
      <path id="路径_155" data-name="路径 155" d="M-98.632,1433.415q-3.586-3.562-10.711-3.562h-10.786q-4.079,0-4.078,4.031t4.078,4.031h10.458a6.673,6.673,0,0,1,4.852,1.664,6.671,6.671,0,0,1,1.711,4.992v10.219q0,4.078,4.031,4.078t4.031-4.078v-10.828Q-95.046,1436.978-98.632,1433.415Z" fill="#333"/>
      <path id="路径_156" data-name="路径 156" d="M-99.077,1488.259q-4.032,0-4.032,4.078v10.172a6.738,6.738,0,0,1-1.711,5.039,6.674,6.674,0,0,1-4.851,1.661h-10.458q-4.079,0-4.078,4.031,0,3.987,4.078,3.988h10.786q7.125,0,10.711-3.562t3.586-10.548v-10.781Q-95.046,1488.259-99.077,1488.259Z" fill="#333"/>
    </g>
  </g>
</svg>
