<?xml version="1.0" encoding="utf-8"?>
<!-- Generator: Adobe Illustrator 24.1.2, SVG Export Plug-In . SVG Version: 6.00 Build 0)  -->
<svg version="1.1" id="图层_1" xmlns="http://www.w3.org/2000/svg" xmlns:xlink="http://www.w3.org/1999/xlink" x="0px" y="0px"
	 viewBox="0 0 64 64" style="enable-background:new 0 0 64 64;" xml:space="preserve">
<path d="M50.4,31.6c0-5.7-4.4-10.4-9.9-10.4c-1.5,0-2.9,0.4-4.3,1.1v-0.1c0-1.9-1.3-3.6-3.1-4.1v-1.5h3.2v-1.8h-3.2v-2.6h-2.5v2.6
	h-3.3v1.8h3.3v1.6c-1.7,0.6-3,2.2-3,4.1v0.1c-1.4-0.7-2.8-1.1-4.3-1.1c-5.4,0-9.9,4.7-9.9,10.4c0,4.6,2.3,8.1,6.3,9.4V51
	c0,0.5,0.4,0.9,0.9,0.9h22.5c0.5,0,0.9-0.4,0.9-0.9V41C48.1,39.7,50.4,36.2,50.4,31.6z M32,19.7c1.4,0,2.5,1.1,2.5,2.5
	s-1.1,2.5-2.5,2.5c-1.4,0-2.5-1.1-2.5-2.5C29.5,20.8,30.6,19.7,32,19.7z M16.2,32.1c0-4.5,3.4-8.1,7.6-8.1c1.5,0,2.9,0.5,4.3,1.4
	c1,0.7,1.8,1.6,2.1,2v12.4h-6.9c-0.7,0-1.3-0.1-1.9-0.3C18.2,38.6,16.2,35.8,16.2,32.1z M41.8,49.5H22.2v-8h19.5L41.8,49.5
	L41.8,49.5z M42.5,39.5c-0.7,0.2-1.2,0.3-1.9,0.3h-6.9V27.3c0.3-0.4,1-1.2,2.1-2c1.4-0.9,2.8-1.4,4.3-1.4c4.2,0,7.6,3.7,7.6,8.1
	C47.8,35.8,45.8,38.6,42.5,39.5z"/>
</svg>
