<svg xmlns="http://www.w3.org/2000/svg" width="128" height="128" viewBox="0 0 128 128">
  <g id="icon-light" transform="translate(-317 -489)">
    <rect id="矩形_320" data-name="矩形 320" width="128" height="128" transform="translate(317 489)" fill="#f6f6f6"/>
    <path id="路径_146" data-name="路径 146" d="M349.008,1794.972a3.347,3.347,0,0,0-2.161-.792l-.193,0-42.837,0,0-56.495a3.35,3.35,0,0,0-.77-2.144,2.556,2.556,0,0,0-2.038-.844.923.923,0,0,1-.1,0,2.644,2.644,0,0,0-2.093.851,3.394,3.394,0,0,0-.813,2.2v59.227c0,.013,0,.026,0,.04s0,.05,0,.075a2.635,2.635,0,0,0,.658,1.874c.042.057.077.12.123.174a2.692,2.692,0,0,0,2.12.855h.114c.013,0,.025,0,.037,0h45.727a3.344,3.344,0,0,0,2.163-.785,2.692,2.692,0,0,0,.855-2.12c0-.036,0-.073,0-.108A2.574,2.574,0,0,0,349.008,1794.972Z" transform="translate(57 -1214.694)" fill="#333"/>
  </g>
</svg>
