<svg xmlns="http://www.w3.org/2000/svg" width="128" height="128" viewBox="0 0 128 128">
  <g id="icon-trash" transform="translate(-21 -647)">
    <rect id="矩形_320" data-name="矩形 320" width="128" height="128" transform="translate(21 647)" fill="#f6f6f6"/>
    <path id="路径_145" data-name="路径 145" d="M-18.351,13.162H20.642A10.638,10.638,0,0,0,28.3,10.4,10.693,10.693,0,0,0,31.423,2.83l2.92-61.453h4.852a3.463,3.463,0,0,0,2.516-1.011,3.4,3.4,0,0,0,1.033-2.538A3.3,3.3,0,0,0,41.71-64.62a3.463,3.463,0,0,0-2.516-1.011H-36.948a3.409,3.409,0,0,0-2.471,1.011,3.3,3.3,0,0,0-1.033,2.448,3.4,3.4,0,0,0,1.033,2.538,3.409,3.409,0,0,0,2.471,1.011H-32.1l2.92,61.5A10.638,10.638,0,0,0-26.055,10.4,10.7,10.7,0,0,0-18.351,13.162Zm.764-7.053A4.067,4.067,0,0,1-20.619,4.9,4.515,4.515,0,0,1-21.9,1.842l-2.875-60.465H26.931L24.146,1.842a4.533,4.533,0,0,1-1.258,3.077,4.089,4.089,0,0,1-3.055,1.19Zm6.154-7.053a2.841,2.841,0,0,0,2.066-.741,2.464,2.464,0,0,0,.719-1.954l-1.3-44.922a2.489,2.489,0,0,0-.786-1.932,2.787,2.787,0,0,0-1.954-.719,2.921,2.921,0,0,0-2.089.741,2.428,2.428,0,0,0-.741,1.954l1.258,44.877a2.725,2.725,0,0,0,.809,1.977A2.829,2.829,0,0,0-11.433-.943Zm12.578,0a2.939,2.939,0,0,0,2.066-.741,2.473,2.473,0,0,0,.809-1.909V-48.516a2.525,2.525,0,0,0-.809-1.954,2.939,2.939,0,0,0-2.066-.741,2.921,2.921,0,0,0-2.089.741,2.561,2.561,0,0,0-.786,1.954V-3.594A2.507,2.507,0,0,0-.943-1.685,2.921,2.921,0,0,0,1.146-.943Zm12.533,0A2.829,2.829,0,0,0,15.7-1.662a2.67,2.67,0,0,0,.809-1.932l1.258-44.922a2.308,2.308,0,0,0-.7-1.954,2.921,2.921,0,0,0-2.089-.741,2.787,2.787,0,0,0-1.954.719,2.682,2.682,0,0,0-.831,1.977L10.938-3.639a2.341,2.341,0,0,0,.674,1.954A2.841,2.841,0,0,0,13.679-.943ZM-17.9-62.711h7.412V-71.65a3.582,3.582,0,0,1,1.1-2.74,4.062,4.062,0,0,1,2.9-1.033H8.647a4.125,4.125,0,0,1,2.942,1.033,3.582,3.582,0,0,1,1.1,2.74v8.939H20.1v-9.344a9.684,9.684,0,0,0-2.9-7.457q-2.9-2.7-8.063-2.7H-6.985q-5.121,0-8.019,2.7a9.684,9.684,0,0,0-2.9,7.457Z" transform="translate(85 745)" fill="#333"/>
  </g>
</svg>
