<?xml version="1.0" encoding="utf-8"?>
<!-- Generator: Adobe Illustrator 23.1.1, SVG Export Plug-In . SVG Version: 6.00 Build 0)  -->
<svg version="1.1" id="图层_1" xmlns="http://www.w3.org/2000/svg" xmlns:xlink="http://www.w3.org/1999/xlink" x="0px" y="0px"
	 viewBox="0 0 64 64" style="enable-background:new 0 0 64 64;" xml:space="preserve">
<g>
	<polygon points="51.3,43.6 46,43.6 46,38.3 43.8,38.3 43.8,43.6 38.6,43.6 38.6,45.8 43.8,45.8 43.8,51 46,51 46,45.8 51.3,45.8 	
		"/>
	<path d="M18.7,46.6V17.1c0-1.3,1-2.2,2.2-2.2h15.4v9h9V35h2.2V22.2l0.1-0.2v-0.5l-9-9h-0.5H20.9c-2.5,0-4.5,2-4.5,4.5v29.5
		c0,2.5,2,4.5,4.5,4.5h19.9v-2.2H20.9C19.6,48.8,18.7,47.8,18.7,46.6z M38.6,15.7l5.8,5.8h-5.8V15.7z"/>
	<rect x="24.6" y="27.5" width="10.9" height="2.2"/>
	<rect x="24.6" y="41" width="10.9" height="2.2"/>
	<rect x="24.6" y="34.3" width="15.4" height="2.2"/>
</g>
</svg>
