<svg xmlns="http://www.w3.org/2000/svg" width="128" height="128" viewBox="0 0 128 128">
  <g id="icon-order-list" transform="translate(-909 -489)">
    <rect id="矩形_320" data-name="矩形 320" width="128" height="128" transform="translate(909 489)" fill="#f6f6f6"/>
    <path id="路径_149" data-name="路径 149" d="M-15.984-55.078h58.5a3.776,3.776,0,0,0,2.813-1.148,3.838,3.838,0,0,0,1.125-2.789A3.838,3.838,0,0,0,45.328-61.8a3.776,3.776,0,0,0-2.812-1.148h-58.5a3.838,3.838,0,0,0-2.789,1.125,3.776,3.776,0,0,0-1.148,2.813,3.8,3.8,0,0,0,1.148,2.789A3.8,3.8,0,0,0-15.984-55.078Zm0,54.094h58.5a3.816,3.816,0,0,0,2.813-1.125,3.816,3.816,0,0,0,1.125-2.812,3.838,3.838,0,0,0-1.125-2.789,3.776,3.776,0,0,0-2.812-1.148h-58.5a3.8,3.8,0,0,0-2.789,1.148,3.8,3.8,0,0,0-1.148,2.789,3.776,3.776,0,0,0,1.148,2.813A3.838,3.838,0,0,0-15.984-.984Zm0-27.047h58.5a3.776,3.776,0,0,0,2.813-1.148,3.838,3.838,0,0,0,1.125-2.789,3.838,3.838,0,0,0-1.125-2.789,3.776,3.776,0,0,0-2.812-1.148h-58.5a3.8,3.8,0,0,0-2.789,1.148,3.8,3.8,0,0,0-1.148,2.789,3.8,3.8,0,0,0,1.148,2.789A3.8,3.8,0,0,0-15.984-28.031Zm-20.2,33a10.367,10.367,0,0,0,6.3-1.664,5.348,5.348,0,0,0,2.227-4.523A4.017,4.017,0,0,0-28.9-4.242a5.852,5.852,0,0,0-3.586-1.43v-.094A5.7,5.7,0,0,0-29.6-7.219a4.043,4.043,0,0,0,1.2-3.094,4.339,4.339,0,0,0-2.25-3.937,10.518,10.518,0,0,0-5.531-1.359,12.039,12.039,0,0,0-3.492.516,6.99,6.99,0,0,0-2.812,1.547,3.333,3.333,0,0,0-1.1,2.531,2.132,2.132,0,0,0,.633,1.57,2.312,2.312,0,0,0,1.711.633,2.1,2.1,0,0,0,1.172-.281,4.966,4.966,0,0,0,.891-.8,4.563,4.563,0,0,1,1.477-1.125,3.824,3.824,0,0,1,1.477-.281,2.835,2.835,0,0,1,1.688.469,1.665,1.665,0,0,1,.656,1.453,1.576,1.576,0,0,1-.727,1.383A3.708,3.708,0,0,1-36.7-7.5h-.516q-2.109,0-2.109,1.922,0,2.016,2.109,2.016h.563q3,0,3,1.969a1.756,1.756,0,0,1-.727,1.453,2.86,2.86,0,0,1-1.8.563A3.664,3.664,0,0,1-38.2-.117a10.521,10.521,0,0,1-1.5-1.148,3.6,3.6,0,0,0-.8-.609,2.1,2.1,0,0,0-1.031-.234,2.783,2.783,0,0,0-1.852.609A2.083,2.083,0,0,0-44.109.188q0,2.3,2.578,3.539A12.172,12.172,0,0,0-36.187,4.969Zm-5.3-27.844H-30a2.287,2.287,0,0,0,1.617-.586,2.1,2.1,0,0,0,.633-1.617,2.112,2.112,0,0,0-.633-1.594A2.236,2.236,0,0,0-30-27.281h-6.234v-.094l3.563-2.953a18.626,18.626,0,0,0,3.3-3.187,5.51,5.51,0,0,0,1.008-3.375,5.244,5.244,0,0,0-2.133-4.336,9.174,9.174,0,0,0-5.789-1.664,8.993,8.993,0,0,0-5.32,1.477,4.309,4.309,0,0,0-2.086,3.586q0,2.3,2.484,2.3a2.716,2.716,0,0,0,2.391-1.406,2.922,2.922,0,0,1,2.625-1.547,2.172,2.172,0,0,1,1.57.563,1.983,1.983,0,0,1,.586,1.5,2.876,2.876,0,0,1-.539,1.57,10.944,10.944,0,0,1-2.273,2.18L-42.7-27.891a3.282,3.282,0,0,0-1.266,2.578,2.379,2.379,0,0,0,.68,1.758A2.439,2.439,0,0,0-41.484-22.875Zm7.219-27a3.038,3.038,0,0,0,2.133-.75,2.964,2.964,0,0,0,.82-2.3V-67.266a3.084,3.084,0,0,0-.937-2.344,3.331,3.331,0,0,0-2.391-.891,4.933,4.933,0,0,0-2.109.4,13.238,13.238,0,0,0-1.687.961l-3.141,2.156a2.66,2.66,0,0,0-1.406,2.2,1.925,1.925,0,0,0,.586,1.453,1.931,1.931,0,0,0,1.383.563,6.447,6.447,0,0,0,.727-.117,3.143,3.143,0,0,0,.914-.492l2.016-1.406h.047v11.859a2.917,2.917,0,0,0,.844,2.3A3.192,3.192,0,0,0-34.266-49.875Z" transform="translate(972.109 584.5)" fill="#333"/>
  </g>
</svg>
