<svg xmlns="http://www.w3.org/2000/svg" width="128" height="128" viewBox="0 0 128 128">
  <g id="icon-backward" transform="translate(-465 -647)">
    <path id="路径_159" data-name="路径 159" d="M0,0H128V128H0Z" transform="translate(465 647)" fill="#f6f6f6"/>
    <path id="路径_158" data-name="路径 158" d="M-26.766-32.016a5.007,5.007,0,0,0,.352,1.9,4.392,4.392,0,0,0,1.2,1.617L9.563,5.578a4.61,4.61,0,0,0,3.328,1.313A4.924,4.924,0,0,0,15.281,6.3a4.332,4.332,0,0,0,1.711-1.687,4.674,4.674,0,0,0,.633-2.367,4.63,4.63,0,0,0-1.453-3.375L-15.469-32.016,16.172-62.906a4.63,4.63,0,0,0,1.453-3.375,4.635,4.635,0,0,0-.633-2.391,4.377,4.377,0,0,0-1.711-1.664,4.924,4.924,0,0,0-2.391-.586,4.61,4.61,0,0,0-3.328,1.313L-25.219-35.531a4.392,4.392,0,0,0-1.2,1.617A5.007,5.007,0,0,0-26.766-32.016Z" transform="translate(529 745)" fill="#333"/>
  </g>
</svg>
