<svg xmlns="http://www.w3.org/2000/svg" width="128" height="128" viewBox="0 0 128 128">
  <g id="icon-forward" transform="translate(-613 -647)">
    <path id="路径_161" data-name="路径 161" d="M0,0H128V128H0Z" transform="translate(613 647)" fill="#f6f6f6"/>
    <path id="路径_160" data-name="路径 160" d="M29.109-32.016a5.007,5.007,0,0,1-.352,1.9,4.392,4.392,0,0,1-1.2,1.617L-7.219,5.578a4.61,4.61,0,0,1-3.328,1.313A4.924,4.924,0,0,1-12.937,6.3a4.332,4.332,0,0,1-1.711-1.687,4.674,4.674,0,0,1-.633-2.367,4.63,4.63,0,0,1,1.453-3.375L17.813-32.016-13.828-62.906a4.63,4.63,0,0,1-1.453-3.375,4.635,4.635,0,0,1,.633-2.391,4.377,4.377,0,0,1,1.711-1.664,4.924,4.924,0,0,1,2.391-.586,4.61,4.61,0,0,1,3.328,1.313L27.563-35.531a4.392,4.392,0,0,1,1.2,1.617A5.007,5.007,0,0,1,29.109-32.016Z" transform="translate(677 745)" fill="#333"/>
  </g>
</svg>
