<svg xmlns="http://www.w3.org/2000/svg" width="128" height="128" viewBox="0 0 128 128">
  <g id="icon-role-participator" transform="translate(-1057 -647)">
    <rect id="矩形_320" data-name="矩形 320" width="128" height="128" transform="translate(1057 647)" fill="#f6f6f6"/>
    <path id="路径_169" data-name="路径 169" d="M228.052,2037.773a2.907,2.907,0,0,1-2.907-2.907h0c0-4.036,3.638-11.9,9.732-21.044,3.924-5.885,5.624-9.179,6.349-10.991a.807.807,0,0,0-1.148-1,43.51,43.51,0,0,0-7.949,5.973,79.747,79.747,0,0,0-6.239,7.63c-2.533,3.641-4.641,5.271-6.825,5.271a6.055,6.055,0,0,1-4.221-2.133,4.208,4.208,0,0,0-2.964-1.462,3.425,3.425,0,0,0-.552.047,5.3,5.3,0,0,1-1.185.127c-3.105,0-6.894-2.377-9.653-6.054l-1.74-2.436a2.907,2.907,0,0,1-.407-2.566l1.088-3.445c1.2-4.079,4.754-11.876,12.677-29.121,4.318-9.316,5.541-14.406,4.849-20.172l-.7-5.137a.8.8,0,0,1,.793-.908l4.49.235a.74.74,0,0,1,.115.014,42.383,42.383,0,0,1,8.863,2.878c.777.389,1.4.673,1.9.879a2.078,2.078,0,0,0,2.461-.688c.4-.533.947-1.2,1.681-2.085.5-.6,2.23-2.508,4.036-2.508a2.349,2.349,0,0,1,.724.111c2.525.226,6.982,5.651,8.1,9.217.817,2.246.833,2.289,4.708,2.721,5.474.475,9.8,2.563,15.419,7.448,8.221,7.28,15.138,19.242,18.509,32,2.284,8.45,3.8,24.938,3.067,33.283l-.489,4.242a2.907,2.907,0,0,1-2.888,2.574Zm7-10.544a2.1,2.1,0,0,0,1.772,2.989c3.138.187,7.814.187,9.783.187,3.1,0,6.987-.027,11.868-.084l21.785-.2a2.833,2.833,0,0,0,2.806-2.936l-.332-9.145c-.459-14.674-2.05-21.493-7.4-31.729-3.68-6.9-11.387-15.967-15.855-18.649-2.007-1.336-4-1.759-8.25-1.759l-1.808.005c-5.027,0-5.283-.819-7.276-7.2l-.341-1.09c-.765-2.167-1.178-2.809-1.38-2.987a3.24,3.24,0,0,0-.659.785c-1.051,2.479-4.6,4.627-12.6,7.627-3.656,1.371-4.365,2.229-5.147,3.977-.343,1.119-1.954,4.505-4.17,9.16-1.43,3.007-3.091,6.5-4.751,10.093-4.829,9.912-8.18,17.6-8.37,18.55-.359,1.264-.181,1.89,1.654,3.726,1.24,1.24,2,1.759,3.5,1.759a24.185,24.185,0,0,0,5.563-1.032,7.234,7.234,0,0,1,1.532-.228,1.562,1.562,0,0,1,1.237.48c.5.562.452,1.419.333,2.483a4.661,4.661,0,0,0,.066,1.439c.333-.177,1.288-.9,3.4-3.864,4.077-5.89,10.548-11.892,16.119-14.95.046-.025.1-.05.143-.072,3.261-1.533,3.593-2.32,4.454-5.335,1.161-4.41,4.517-10.839,6.936-12.184a3.713,3.713,0,0,1,1.531-.423,1.49,1.49,0,0,1,1.249.6c.759,1.01.489,3.045-1.156,8.709a43.208,43.208,0,0,0-2.075,10.311c0,6.513-1.762,11.075-7.856,20.338A86.935,86.935,0,0,0,235.053,2027.229Zm-12.011-72.857c-.043.349-.043.983-.043,1.6,0,1.728.448,1.728.616,1.728a5.27,5.27,0,0,0,2.379-1.005l.812-.451-1.453-.726A22.971,22.971,0,0,0,223.042,1954.372Zm-.609,19.394c-2.809,1.638-4.213,4.916-3.277,7.257.7,1.873,2.809,1.639,7.023-.937,3.512-2.106,5.384-5.15,3.98-7.023C229.456,1971.425,225.477,1971.893,222.433,1973.766Zm-14.982,28.326c-1.873,1.873-1.171,4.916.936,5.15,2.575.234,4.448-3.277,2.809-5.384C210.026,2000.219,209.09,2000.219,207.451,2002.092Z" transform="translate(875.791 -1281.174)" fill="#333"/>
  </g>
</svg>
