<svg xmlns="http://www.w3.org/2000/svg" width="128" height="128" viewBox="0 0 128 128">
  <g id="icon-role-admin" transform="translate(-909 -647)">
    <rect id="矩形_320" data-name="矩形 320" width="128" height="128" transform="translate(909 647)" fill="#f6f6f6"/>
    <path id="路径_171" data-name="路径 171" d="M212.6,2161.31l-14.26-15.77a15.737,15.737,0,0,0-1.008-11.558,23,23,0,0,0-5.582-39.254,11.831,11.831,0,0,0,1.358-1.815,11.317,11.317,0,0,0,0-11.433,11.946,11.946,0,0,0-4.133-4.11,11.275,11.275,0,0,0-11.411,0,11.886,11.886,0,0,0-4.133,4.133,11.276,11.276,0,0,0,0,11.411,11.878,11.878,0,0,0,1.217,1.656,22.994,22.994,0,0,0-6,39.4,15.891,15.891,0,0,0-.986,11.575l-14.26,15.77a7,7,0,0,0,5.19,11.69h48.82a7,7,0,0,0,5.19-11.69Zm-32.362-77.133a4.109,4.109,0,0,1,3.01-1.258,4.22,4.22,0,0,1,3.032,1.235,4.048,4.048,0,0,1,1.28,3.032,4.373,4.373,0,0,1-4.313,4.313,4.048,4.048,0,0,1-3.032-1.28,4.219,4.219,0,0,1-1.235-3.032A4.108,4.108,0,0,1,180.239,2084.177Zm-11.875,31.959v-.272a3,3,0,0,1,3-3h8.5v-8.5a3,3,0,0,1,3-3h.272a3,3,0,0,1,3,3v8.5h8.5a3,3,0,0,1,3,3v.272a3,3,0,0,1-3,3h-8.5v8.5a3,3,0,0,1-3,3h-.272a3,3,0,0,1-3-3v-8.5h-8.5A3,3,0,0,1,168.364,2116.136ZM158.591,2166l12.72-14.07,3.67-4.058a1.964,1.964,0,0,0,.27-2.3A8.961,8.961,0,0,1,174,2141a8.759,8.759,0,0,1,.55-3.08v-.01c.055-.152.12-.3.183-.447a23,23,0,0,0,16.517.006c.064.149.144.288.2.441v.01A8.759,8.759,0,0,1,192,2141a8.961,8.961,0,0,1-1.25,4.57,1.962,1.962,0,0,0,.269,2.3l3.671,4.058,12.72,14.07Z" transform="translate(790.403 -1413.819)" fill="#333"/>
  </g>
</svg>
