<svg xmlns="http://www.w3.org/2000/svg" width="128" height="128" viewBox="0 0 128 128">
  <g id="icon-page" transform="translate(-21 -331)">
    <rect id="矩形_320" data-name="矩形 320" width="128" height="128" transform="translate(21 331)" fill="#f6f6f6"/>
    <path id="路径_123" data-name="路径 123" d="M62.217-10.422a2.579,2.579,0,0,1,1.932.786,2.638,2.638,0,0,1,.764,1.909,2.489,2.489,0,0,1-.764,1.864,2.66,2.66,0,0,1-1.932.741H30.861a2.642,2.642,0,0,1-1.954-.741,2.528,2.528,0,0,1-.741-1.864,2.681,2.681,0,0,1,.741-1.909,2.561,2.561,0,0,1,1.954-.786Zm0-14.465a2.66,2.66,0,0,1,1.932.741,2.489,2.489,0,0,1,.764,1.864,2.638,2.638,0,0,1-.764,1.909,2.579,2.579,0,0,1-1.932.786H30.861a2.561,2.561,0,0,1-1.954-.786,2.681,2.681,0,0,1-.741-1.909,2.528,2.528,0,0,1,.741-1.864,2.642,2.642,0,0,1,1.954-.741ZM24.348,15.139H69.584q6.738,0,10.13-3.437t3.392-10.22V-37.105a31.567,31.567,0,0,0-.314-4.852,11.087,11.087,0,0,0-1.213-3.616,15.62,15.62,0,0,0-2.7-3.437l-22.82-23.18a16.023,16.023,0,0,0-3.324-2.7,10.591,10.591,0,0,0-3.526-1.28A26.33,26.33,0,0,0,44.7-76.5H24.348q-6.693,0-10.107,3.459T10.826-62.8V1.482q0,6.783,3.414,10.22T24.348,15.139Zm.539-7.727a6.377,6.377,0,0,1-4.739-1.617,6.379,6.379,0,0,1-1.595-4.672V-62.441a6.34,6.34,0,0,1,1.617-4.649,6.4,6.4,0,0,1,4.762-1.64H43.395v23.809q0,4.357,2.134,6.491t6.4,2.134H75.424V1.123a6.379,6.379,0,0,1-1.595,4.672A6.509,6.509,0,0,1,69,7.412ZM52.738-43.26a2.517,2.517,0,0,1-1.842-.584,2.588,2.588,0,0,1-.584-1.887V-67.518l23.9,24.258Z" transform="translate(38.173 425.502)" fill="#333"/>
  </g>
</svg>
