<svg xmlns="http://www.w3.org/2000/svg" width="128" height="128" viewBox="0 0 128 128">
  <g id="icon-die-iv" transform="translate(-465 -173)">
    <rect id="矩形_320" data-name="矩形 320" width="128" height="128" transform="translate(465 173)" fill="rgba(246,246,246,0)"/>
    <path id="路径_102" data-name="路径 102" d="M26.66,9.57H82.617q7.422,0,11.157-3.711T97.51-5.127v-56.3q0-7.275-3.735-10.986T82.617-76.123H26.66q-7.373,0-11.133,3.687t-3.76,11.011v56.3q0,7.324,3.76,11.011T26.66,9.57ZM27,1.221A6.891,6.891,0,0,1,21.948-.537a7.03,7.03,0,0,1-1.782-5.225V-60.791a7.03,7.03,0,0,1,1.782-5.225A6.891,6.891,0,0,1,27-67.773H82.275a6.978,6.978,0,0,1,5.078,1.758,6.973,6.973,0,0,1,1.807,5.225V-5.762A6.973,6.973,0,0,1,87.354-.537a6.978,6.978,0,0,1-5.078,1.758ZM34.277-46.24a6.986,6.986,0,0,0,5.273-2.173,7.273,7.273,0,0,0,2.2-5.3,7.168,7.168,0,0,0-2.2-5.3,7.233,7.233,0,0,0-5.273-2.173A7.233,7.233,0,0,0,29-59.009a7.168,7.168,0,0,0-2.2,5.3A7.112,7.112,0,0,0,29-48.462,7.41,7.41,0,0,0,34.277-46.24Zm40.771,0a6.986,6.986,0,0,0,5.273-2.173,7.273,7.273,0,0,0,2.2-5.3,7.168,7.168,0,0,0-2.2-5.3,7.233,7.233,0,0,0-5.273-2.173,7.233,7.233,0,0,0-5.273,2.173,7.168,7.168,0,0,0-2.2,5.3,7.112,7.112,0,0,0,2.2,5.249A7.41,7.41,0,0,0,75.049-46.24ZM34.277-5.371a7.153,7.153,0,0,0,5.273-2.222,7.273,7.273,0,0,0,2.2-5.3,7.192,7.192,0,0,0-2.2-5.273,7.192,7.192,0,0,0-5.273-2.2,7.112,7.112,0,0,0-5.249,2.2,7.233,7.233,0,0,0-2.173,5.273,7.314,7.314,0,0,0,2.173,5.3A7.074,7.074,0,0,0,34.277-5.371Zm40.771,0a7.153,7.153,0,0,0,5.273-2.222,7.273,7.273,0,0,0,2.2-5.3,7.192,7.192,0,0,0-2.2-5.273,7.192,7.192,0,0,0-5.273-2.2,7.112,7.112,0,0,0-5.249,2.2,7.233,7.233,0,0,0-2.173,5.273,7.314,7.314,0,0,0,2.173,5.3A7.074,7.074,0,0,0,75.049-5.371Z" transform="translate(474.232 270.123)" fill="#333"/>
  </g>
</svg>
