<?xml version="1.0" encoding="utf-8"?>
<!-- Generator: Adobe Illustrator 23.1.1, SVG Export Plug-In . SVG Version: 6.00 Build 0)  -->
<svg version="1.1" id="图层_1" xmlns="http://www.w3.org/2000/svg" xmlns:xlink="http://www.w3.org/1999/xlink" x="0px" y="0px"
	 viewBox="0 0 64 64" style="enable-background:new 0 0 64 64;" xml:space="preserve">
<path d="M46.2,16.8c-0.5,0-1,0.4-1,1v30.4c0,0.5-0.5,1-1,1H21.8c-1.7,0-3.1-1.3-3.1-3.1s1.4-3.1,3.1-3.1h18.3c1.7,0,3.1-1.3,3.1-3.1
	V15.8c0-1.7-1.3-3.1-3.1-3.1H19.9c-1.7,0-3.1,1.3-3.1,3.1v30.4c0,2.8,2.2,5,5,5h22.3c1.7,0,3.1-1.4,3.1-3.1V17.8
	C47.2,17.2,46.8,16.8,46.2,16.8z M19.9,14.7h20.2c0.5,0,1,0.4,1,1V40c0,0.5-0.5,1-1,1H21.8c-1.2,0-2.2,0.4-3.1,1V15.8
	C18.8,15.2,19.3,14.7,19.9,14.7L19.9,14.7z"/>
<g>
	<path d="M24.5,19.3h7.5c1.5,0,2.7,0.4,3.6,1.3c0.9,0.8,1.4,2,1.4,3.6c0,1.3-0.4,2.5-1.2,3.4c-0.8,1-2.1,1.5-3.8,1.5h-5.3v7.1h-2.3
		V19.3z M33.4,21.6c-0.5-0.2-1.2-0.4-2.1-0.4h-4.5v5.8h4.5c1,0,1.8-0.2,2.5-0.7s1-1.2,1-2.3C34.8,22.9,34.3,22,33.4,21.6z"/>
</g>
</svg>
