<svg xmlns="http://www.w3.org/2000/svg" width="128" height="128" viewBox="0 0 128 128">
  <g id="icon-book" transform="translate(-169 -331)">
    <rect id="矩形_320" data-name="矩形 320" width="128" height="128" transform="translate(169 331)" fill="#f6f6f6"/>
    <path id="路径_113" data-name="路径 113" d="M25.313,15.8H82.875a3.842,3.842,0,0,0,3.891-3.891,3.664,3.664,0,0,0-.82-2.344A4.855,4.855,0,0,0,84,8.063a7.357,7.357,0,0,1-3.961-3.727,8.77,8.77,0,0,1-.562-5.625,11.386,11.386,0,0,1,3.4-5.789A18.3,18.3,0,0,0,84.8-9.117,8.341,8.341,0,0,0,86.2-11.789a12.167,12.167,0,0,0,.516-3.773V-65.484q0-7.078-3.539-10.687t-10.57-3.609h-47.2q-6.984,0-10.547,3.609T11.3-65.484V1.688q0,7.031,3.539,10.57T25.313,15.8ZM19.359-11.531V-65.109a6.656,6.656,0,0,1,1.664-4.875,6.654,6.654,0,0,1,4.945-1.687H72a6.792,6.792,0,0,1,5.039,1.688A6.656,6.656,0,0,1,78.7-65.109v48.375q0,3.516-3.656,3.516H26.3a15.76,15.76,0,0,0-3.773.422A11.971,11.971,0,0,0,19.359-11.531Zm6.8,19.547a7.049,7.049,0,0,1-5.273-1.8,6.851,6.851,0,0,1-1.758-4.992,6.3,6.3,0,0,1,1.969-4.8,7.553,7.553,0,0,1,5.391-1.852H71.344a5.877,5.877,0,0,0,.773-.047q.352-.047.727-.094A14.575,14.575,0,0,0,71.391,1.5a13.611,13.611,0,0,0,1.969,6.516ZM24.563-9.234h6.094v-64.5H24.563Z" transform="translate(183.703 426.781)" fill="#333"/>
  </g>
</svg>
