<svg xmlns="http://www.w3.org/2000/svg" width="128" height="128" viewBox="0 0 128 128">
  <g id="icon-code-block" transform="translate(-909 -331)">
    <rect id="矩形_320" data-name="矩形 320" width="128" height="128" transform="translate(909 331)" fill="#f6f6f6"/>
    <path id="路径_182" data-name="路径 182" d="M48.889,13.66a3.4,3.4,0,0,0,2.8-.33A4.071,4.071,0,0,0,53.5,10.986L73.865-58.887a3.99,3.99,0,0,0-.238-2.948,3.533,3.533,0,0,0-2.216-1.813,3.41,3.41,0,0,0-2.82.348,3.834,3.834,0,0,0-1.758,2.362L46.472,8.9a3.908,3.908,0,0,0,.2,2.966A3.545,3.545,0,0,0,48.889,13.66Zm-13-12.488a3.863,3.863,0,0,0,2.765,1.1,3.477,3.477,0,0,0,2.582-1.208,3.407,3.407,0,0,0,.934-2.673,3.874,3.874,0,0,0-1.337-2.6L17.871-24.976,40.833-45.7a4.008,4.008,0,0,0,1.337-2.637,3.407,3.407,0,0,0-.934-2.673,3.371,3.371,0,0,0-2.582-1.227,3.873,3.873,0,0,0-2.765,1.154L10.254-27.979a4.157,4.157,0,0,0-1.227,1.923,3.827,3.827,0,0,0,0,2.161,3.937,3.937,0,0,0,1.227,1.886ZM84.412,1.1l25.671-23.108a4.023,4.023,0,0,0,1.208-1.923,3.873,3.873,0,0,0-.018-2.142,4.29,4.29,0,0,0-1.19-1.9L84.412-51.16a3.863,3.863,0,0,0-2.765-1.1,3.431,3.431,0,0,0-2.582,1.245,3.44,3.44,0,0,0-.916,2.655,3.816,3.816,0,0,0,1.318,2.618l22.925,20.728L79.468-4.285a3.931,3.931,0,0,0-1.318,2.637,3.528,3.528,0,0,0,.916,2.673,3.371,3.371,0,0,0,2.582,1.227A3.873,3.873,0,0,0,84.412,1.1Z" transform="translate(914 422)" fill="#333"/>
  </g>
</svg>
