<svg xmlns="http://www.w3.org/2000/svg" width="128" height="128" viewBox="0 0 128 128">
  <g id="icon-group" transform="translate(-761 -15)">
    <rect id="矩形_320" data-name="矩形 320" width="128" height="128" transform="translate(761 15)" fill="#f6f6f6"/>
    <path id="路径_137" data-name="路径 137" d="M55.713,14.111a45.553,45.553,0,0,0,18.359-3.735A48.6,48.6,0,0,0,89.209.1,48.338,48.338,0,0,0,99.463-15.015a45.638,45.638,0,0,0,3.711-18.335,45.638,45.638,0,0,0-3.711-18.335A48.427,48.427,0,0,0,89.185-66.821,48.347,48.347,0,0,0,74.023-77.1a45.811,45.811,0,0,0-18.359-3.711A45.571,45.571,0,0,0,37.4-77.1,48.347,48.347,0,0,0,22.241-66.821,48.427,48.427,0,0,0,11.963-51.685,45.638,45.638,0,0,0,8.252-33.35a45.381,45.381,0,0,0,3.735,18.335A48.686,48.686,0,0,0,22.266.1,48.6,48.6,0,0,0,37.4,10.376,45.434,45.434,0,0,0,55.713,14.111Zm0-8.74a37.885,37.885,0,0,1-15.039-3,38.821,38.821,0,0,1-12.329-8.3,38.486,38.486,0,0,1-8.276-12.329A38.277,38.277,0,0,1,17.09-33.35a38.154,38.154,0,0,1,2.979-15.039,38.771,38.771,0,0,1,8.276-12.354,38.7,38.7,0,0,1,12.3-8.325,37.71,37.71,0,0,1,15.015-3,37.955,37.955,0,0,1,15.112,3,38.983,38.983,0,0,1,12.329,8.325,38.908,38.908,0,0,1,8.325,12.354,37.885,37.885,0,0,1,3,15.039,37.162,37.162,0,0,1-2.979,15.088,39.365,39.365,0,0,1-8.3,12.329,38.534,38.534,0,0,1-12.3,8.3A38.131,38.131,0,0,1,55.713,5.371ZM53.418-15.137H81.152a6.663,6.663,0,0,0,3.76-.781,2.658,2.658,0,0,0,1.074-2.295,10.256,10.256,0,0,0-2.271-5.957,18.537,18.537,0,0,0-6.445-5.347,20.764,20.764,0,0,0-9.888-2.222A21.169,21.169,0,0,0,57.4-29.517,18.436,18.436,0,0,0,50.9-24.17a10.256,10.256,0,0,0-2.271,5.957,2.658,2.658,0,0,0,1.074,2.295A6.548,6.548,0,0,0,53.418-15.137Zm-23.926,0h16.7a5.492,5.492,0,0,1-.757-4.2,14.435,14.435,0,0,1,2-5.151A16.652,16.652,0,0,1,51.465-29a17.662,17.662,0,0,0-4.248-2,17.426,17.426,0,0,0-5.42-.781,17.082,17.082,0,0,0-8.643,2.1,16.2,16.2,0,0,0-5.664,5.176,11.14,11.14,0,0,0-2,6.1,3.167,3.167,0,0,0,.9,2.417A4.471,4.471,0,0,0,29.492-15.137Zm12.3-20.02a7.165,7.165,0,0,0,5.4-2.49,8.622,8.622,0,0,0,2.319-6.1,8.137,8.137,0,0,0-2.319-5.933,7.327,7.327,0,0,0-5.4-2.368,7.387,7.387,0,0,0-5.469,2.417A8.2,8.2,0,0,0,33.984-43.7,8.56,8.56,0,0,0,36.3-37.646,7.265,7.265,0,0,0,41.8-35.156Zm25.586-.488A8.108,8.108,0,0,0,73.56-38.5a10.066,10.066,0,0,0,2.612-7.056,9.312,9.312,0,0,0-2.637-6.763,8.324,8.324,0,0,0-6.152-2.71,8.379,8.379,0,0,0-6.3,2.783,9.442,9.442,0,0,0-2.637,6.738A9.948,9.948,0,0,0,61.084-38.5,8.283,8.283,0,0,0,67.383-35.645Z" transform="translate(771 112.811)" fill="#333"/>
  </g>
</svg>
