<svg xmlns="http://www.w3.org/2000/svg" width="128" height="128" viewBox="0 0 128 128">
  <g id="icon-role-blocked" transform="translate(-1057 -805)">
    <rect id="矩形_320" data-name="矩形 320" width="128" height="128" transform="translate(1057 805)" fill="#f6f6f6"/>
    <path id="路径_164" data-name="路径 164" d="M226.946,1582.394a46.757,46.757,0,0,0-24.423-24.4,45.148,45.148,0,0,0-35.156,0,46.705,46.705,0,0,0-24.422,24.4,45.122,45.122,0,0,0,.024,35.2,46.828,46.828,0,0,0,24.4,24.378,45,45,0,0,0,35.206,0,46.7,46.7,0,0,0,24.372-24.375,45.256,45.256,0,0,0,0-35.2Zm-79.077,17.594a36.637,36.637,0,0,1,2.859-14.437,37.214,37.214,0,0,1,19.756-19.843,37.661,37.661,0,0,1,28.922,0,37.4,37.4,0,0,1,9.1,5.517l-52.326,52.325a36.809,36.809,0,0,1-8.315-23.562Zm71.389,14.493a37.784,37.784,0,0,1-7.969,11.827,37,37,0,0,1-11.816,7.973,37.82,37.82,0,0,1-28.966,0,37.256,37.256,0,0,1-9.126-5.52l52.332-52.332a37.334,37.334,0,0,1,5.521,9.13A36.346,36.346,0,0,1,222.117,1600,35.658,35.658,0,0,1,219.258,1614.481Z" transform="translate(936.617 -731.429)" fill="#333"/>
  </g>
</svg>
