<?xml version="1.0" encoding="utf-8"?>
<!-- Generator: Adobe Illustrator 16.0.4, SVG Export Plug-In . SVG Version: 6.00 Build 0)  -->
<!DOCTYPE svg PUBLIC "-//W3C//DTD SVG 1.1//EN" "http://www.w3.org/Graphics/SVG/1.1/DTD/svg11.dtd">
<svg version="1.1" id="Layer_1" xmlns="http://www.w3.org/2000/svg" xmlns:xlink="http://www.w3.org/1999/xlink" x="0px" y="0px"
	 width="64px" height="64px" viewBox="0 0 64 64" enable-background="new 0 0 64 64" xml:space="preserve">
<polygon points="37.972,23.096 30,36.903 22.028,23.096 "/>
<path d="M46.2,16.8c-0.5,0-1,0.4-1,1v30.4c0,0.5-0.5,1-1,1H21.8c-1.7,0-3.1-1.3-3.1-3.101c0-1.8,1.4-3.1,3.1-3.1h18.3
	c1.7,0,3.101-1.3,3.101-3.1V15.8c0-1.7-1.3-3.1-3.101-3.1H19.9c-1.7,0-3.1,1.3-3.1,3.1v30.4c0,2.8,2.2,5,5,5h22.3
	c1.7,0,3.101-1.4,3.101-3.101V17.8C47.2,17.2,46.8,16.8,46.2,16.8z M19.9,14.7h20.2c0.5,0,1,0.4,1,1V40c0,0.5-0.5,1-1,1H21.8
	c-1.2,0-2.2,0.4-3.1,1V15.8C18.8,15.2,19.3,14.7,19.9,14.7L19.9,14.7z"/>
</svg>
