<svg xmlns="http://www.w3.org/2000/svg" width="128" height="128" viewBox="0 0 128 128">
  <g id="icon-reword" transform="translate(-317 -15)">
    <rect id="矩形_320" data-name="矩形 320" width="128" height="128" transform="translate(317 15)" fill="#f6f6f6"/>
    <path id="路径_136" data-name="路径 136" d="M29.2-1.323a9.412,9.412,0,0,0,5-1.374,10.411,10.411,0,0,0,3.58-3.6A9.619,9.619,0,0,0,39.1-11.321a9.654,9.654,0,0,0-1.328-5,10.162,10.162,0,0,0-3.58-3.6,9.53,9.53,0,0,0-5-1.351,9.3,9.3,0,0,0-4.954,1.351,10.286,10.286,0,0,0-3.535,3.6,9.654,9.654,0,0,0-1.328,5A9.619,9.619,0,0,0,20.707-6.3a10.543,10.543,0,0,0,3.535,3.6A9.182,9.182,0,0,0,29.2-1.323Zm0,7.566a16.816,16.816,0,0,1-8.782-2.364,17.748,17.748,0,0,1-6.3-6.35,17.144,17.144,0,0,1-2.342-8.849,17.024,17.024,0,0,1,2.342-8.827,17.624,17.624,0,0,1,6.3-6.3A16.94,16.94,0,0,1,29.2-28.794a19.368,19.368,0,0,1,4.931.518,16.8,16.8,0,0,1,3.2,1.171q1.283.653,2.342,1.148a5.732,5.732,0,0,0,2.454.5,5.547,5.547,0,0,0,2.522-.766l6.08-3.242a14.192,14.192,0,0,0,3.625-2.342,6.033,6.033,0,0,0,1.464-2.747l.9-3.152a14.147,14.147,0,0,1,2.995-5.742,14.013,14.013,0,0,1,5.877-3.49L102.2-60.182q8.106-2.882,13.24-1.914a7.706,7.706,0,0,1,6.485,5.922L49.6-17.76a5.443,5.443,0,0,0-1.959,1.486,4.366,4.366,0,0,0-.788,2,20.245,20.245,0,0,0-.18,2.95,17.109,17.109,0,0,1-2.342,8.872A17.748,17.748,0,0,1,38,3.878,16.935,16.935,0,0,1,29.2,6.243Zm37.288-40.62A3.638,3.638,0,0,0,69.1-35.414a3.361,3.361,0,0,0,1.081-2.522A3.412,3.412,0,0,0,69.1-40.5a3.638,3.638,0,0,0-2.612-1.036A3.479,3.479,0,0,0,64.007-40.5a3.412,3.412,0,0,0-1.081,2.567,3.361,3.361,0,0,0,1.081,2.522A3.479,3.479,0,0,0,66.484-34.378ZM29.2-42.259a20.21,20.21,0,0,0,4.931-.5A15.331,15.331,0,0,0,37.3-43.9q1.261-.653,2.364-1.148a5.926,5.926,0,0,1,2.454-.5,5.349,5.349,0,0,1,2.522.766l6.755,3.6q.721.36,1.261.676t1.036.585h.225a16.642,16.642,0,0,1,2.049-4.638,11.64,11.64,0,0,1,3.265-3.2v-.27l-9.187-4.954A8.074,8.074,0,0,1,47.795-54.6a3.954,3.954,0,0,1-.923-2.027,19.5,19.5,0,0,1-.2-3.107A17.264,17.264,0,0,0,44.327-68.6,17.459,17.459,0,0,0,38-74.953a17.059,17.059,0,0,0-8.8-2.342,16.816,16.816,0,0,0-8.782,2.364,17.748,17.748,0,0,0-6.3,6.35,17.144,17.144,0,0,0-2.342,8.849,17.024,17.024,0,0,0,2.342,8.827,17.624,17.624,0,0,0,6.3,6.3A16.94,16.94,0,0,0,29.2-42.259Zm0-7.521a9.3,9.3,0,0,1-4.954-1.351,10.286,10.286,0,0,1-3.535-3.6,9.654,9.654,0,0,1-1.328-5,9.738,9.738,0,0,1,1.328-5.044,10.286,10.286,0,0,1,3.535-3.6A9.3,9.3,0,0,1,29.2-69.729a9.53,9.53,0,0,1,5,1.351,10.162,10.162,0,0,1,3.58,3.6A9.738,9.738,0,0,1,39.1-59.732a9.654,9.654,0,0,1-1.328,5,10.162,10.162,0,0,1-3.58,3.6A9.53,9.53,0,0,1,29.2-49.779Zm73,38.909L68.645-23.48v-.54l18.149-9.5L121.92-14.968a7.812,7.812,0,0,1-6.44,6.1Q110.346-7.808,102.2-10.87Z" transform="translate(314.413 115.707)" fill="#333"/>
  </g>
</svg>
