<?xml version="1.0" encoding="utf-8"?>
<!-- Generator: Adobe Illustrator 23.1.1, SVG Export Plug-In . SVG Version: 6.00 Build 0)  -->
<svg version="1.1" id="图层_1" xmlns="http://www.w3.org/2000/svg" xmlns:xlink="http://www.w3.org/1999/xlink" x="0px" y="0px"
	 viewBox="0 0 64 64" style="enable-background:new 0 0 64 64;" xml:space="preserve">
<g>
	<path d="M38.6,12.5h-0.5H20.9c-2.5,0-4.5,2-4.5,4.5v29.5c0,2.5,2,4.5,4.5,4.5H43c2.5,0,4.5-2,4.5-4.5V22.2l0.1-0.2v-0.5L38.6,12.5z
		 M38.6,15.7l5.8,5.8h-5.8V15.7z M45.3,46.6c0,1.3-1,2.2-2.2,2.2H20.9c-1.3,0-2.2-1-2.2-2.2V17.1c0-1.3,1-2.2,2.2-2.2h15.4v9h9V46.6
		z"/>
	<path d="M32.1,25.9h-8.3h-0.1v18.8h2.6v-7.9h5.9c1.9,0,3.3-0.6,4.2-1.7c0.9-1,1.3-2.3,1.3-3.8c0-1.8-0.6-3.1-1.6-4
		C35.2,26.3,33.8,25.9,32.1,25.9z M34.2,33.7c-0.8,0.6-1.7,0.8-2.8,0.8h-5V28h5c1,0,1.8,0.2,2.3,0.4c1,0.4,1.6,1.4,1.6,2.7
		C35.3,32.4,34.9,33.1,34.2,33.7z"/>
</g>
</svg>
