<svg xmlns="http://www.w3.org/2000/svg" width="128" height="128" viewBox="0 0 128 128">
  <g id="icon-code" transform="translate(-1057 -331)">
    <rect id="矩形_320" data-name="矩形 320" width="128" height="128" transform="translate(1057 331)" fill="#f6f6f6"/>
    <path id="路径_170" data-name="路径 170" d="M62.7.984A33.631,33.631,0,0,0,73.289-.609,26.43,26.43,0,0,0,81.8-5.2a22.489,22.489,0,0,0,5.836-7.172,15.014,15.014,0,0,0,1.1-2.742,9.712,9.712,0,0,0,.4-2.7,3.98,3.98,0,0,0-1.219-3,4.282,4.282,0,0,0-3.094-1.172,4.253,4.253,0,0,0-2.531.7A6.961,6.961,0,0,0,80.367-18.7a18.545,18.545,0,0,1-4.008,6.164,16.465,16.465,0,0,1-5.953,3.8A21.87,21.87,0,0,1,62.7-7.453a19.156,19.156,0,0,1-10.758-3,19.375,19.375,0,0,1-7.055-8.578A32.293,32.293,0,0,1,42.4-32.25,31.286,31.286,0,0,1,44.906-45.3a19.489,19.489,0,0,1,7.055-8.484A19.154,19.154,0,0,1,62.7-56.766a18.643,18.643,0,0,1,7.523,1.5,18.357,18.357,0,0,1,6.047,4.242,20.242,20.242,0,0,1,4.1,6.492,7.069,7.069,0,0,0,1.969,2.578,4.451,4.451,0,0,0,2.719.8A4.23,4.23,0,0,0,88.148-42.3a4.043,4.043,0,0,0,1.172-3.023,11.842,11.842,0,0,0-.844-4.125,21.072,21.072,0,0,0-5.6-8.391,26.948,26.948,0,0,0-9.023-5.437A31.943,31.943,0,0,0,62.7-65.2,30.957,30.957,0,0,0,46.641-61.2,26.618,26.618,0,0,0,36.211-49.8a39.274,39.274,0,0,0-3.656,17.6,39.844,39.844,0,0,0,3.656,17.719A26.582,26.582,0,0,0,46.617-3.023,30.925,30.925,0,0,0,62.7.984Z" transform="translate(1060.445 427.203)" fill="#333"/>
  </g>
</svg>
