<?xml version="1.0" encoding="utf-8"?>
<!-- Generator: Adobe Illustrator 23.1.1, SVG Export Plug-In . SVG Version: 6.00 Build 0)  -->
<svg version="1.1" id="图层_1" xmlns="http://www.w3.org/2000/svg" xmlns:xlink="http://www.w3.org/1999/xlink" x="0px" y="0px"
	 viewBox="0 0 64 64" style="enable-background:new 0 0 64 64;" xml:space="preserve">
<path d="M41.8,56.4V52h12.7c1.6,0,2.8-1.2,2.8-2.8v-6.7h4.4v6.7c0,3.9-3.2,7.2-7.2,7.2H41.8z M9.5,56.4c-3.9,0-7.2-3.2-7.2-7.2v-6.7
	h4.4v6.7c0,1.6,1.2,2.8,2.8,2.8h12.7v4.4H9.5z M57.3,21.5v-6.7c0-1.6-1.2-2.8-2.8-2.8H41.8V7.6h12.7c3.9,0,7.2,3.2,7.2,7.2v6.7H57.3
	z M2.3,21.5v-6.7c0-3.9,3.2-7.2,7.2-7.2h12.7V12H9.5c-1.6,0-2.8,1.2-2.8,2.8v6.7H2.3z"/>
</svg>
