<?xml version="1.0" encoding="utf-8"?>
<!-- Generator: Adobe Illustrator 24.1.2, SVG Export Plug-In . SVG Version: 6.00 Build 0)  -->
<svg version="1.1" id="图层_1" xmlns="http://www.w3.org/2000/svg" xmlns:xlink="http://www.w3.org/1999/xlink" x="0px" y="0px"
	 viewBox="0 0 64 64" style="enable-background:new 0 0 64 64;" xml:space="preserve">
<path d="M32,13.4c-10.3,0-18.6,8.3-18.6,18.6S21.7,50.6,32,50.6c10.3,0,18.6-8.3,18.6-18.6S42.3,13.4,32,13.4z M32,17.1
	c3.5,0,6.6,1.2,9.2,3.2L20.3,41.2c-2-2.5-3.2-5.7-3.2-9.2C17.1,23.8,23.8,17.1,32,17.1z M32,46.9c-3.5,0-6.6-1.2-9.2-3.2l20.9-20.9
	c2,2.5,3.2,5.7,3.2,9.2C46.9,40.2,40.2,46.9,32,46.9z"/>
</svg>
