<svg xmlns="http://www.w3.org/2000/svg" width="128" height="128" viewBox="0 0 128 128">
  <g id="icon-text-block" transform="translate(-761 -489)">
    <rect id="矩形_320" data-name="矩形 320" width="128" height="128" transform="translate(761 489)" fill="#f6f6f6"/>
    <path id="路径_139" data-name="路径 139" d="M-35.4,8.8H37.689q6.783,0,10.22-3.414T51.346-4.717V-16.352a3.936,3.936,0,0,0-1.011-2.875,3.747,3.747,0,0,0-2.808-1.033,3.809,3.809,0,0,0-2.853,1.033,3.936,3.936,0,0,0-1.011,2.875V-5.3A6.416,6.416,0,0,1,42-.494,6.42,6.42,0,0,1,37.33,1.123H-35.084A6.42,6.42,0,0,1-39.756-.494,6.416,6.416,0,0,1-41.418-5.3V-16.352a3.886,3.886,0,0,0-1.033-2.875,3.824,3.824,0,0,0-2.83-1.033,3.747,3.747,0,0,0-2.808,1.033A3.936,3.936,0,0,0-49.1-16.352V-4.717q0,6.738,3.459,10.13T-35.4,8.8Zm0-78.838q-6.783,0-10.242,3.392T-49.1-56.512v9.7a3.936,3.936,0,0,0,1.011,2.875A3.747,3.747,0,0,0-45.281-42.9a3.824,3.824,0,0,0,2.83-1.033,3.886,3.886,0,0,0,1.033-2.875v-9.119a6.416,6.416,0,0,1,1.662-4.807,6.42,6.42,0,0,1,4.672-1.617H37.33A6.42,6.42,0,0,1,42-60.734a6.416,6.416,0,0,1,1.662,4.807v9.119A3.886,3.886,0,0,0,44.7-43.934a3.824,3.824,0,0,0,2.83,1.033,3.747,3.747,0,0,0,2.808-1.033,3.936,3.936,0,0,0,1.011-2.875v-9.7q0-6.693-3.437-10.107t-10.22-3.414ZM-45.281-25.74a5.666,5.666,0,0,0,4.155-1.729A5.666,5.666,0,0,0-39.4-31.625a5.592,5.592,0,0,0-1.729-4.133,5.7,5.7,0,0,0-4.155-1.707,5.651,5.651,0,0,0-4.11,1.707,5.592,5.592,0,0,0-1.729,4.133,5.666,5.666,0,0,0,1.729,4.155A5.615,5.615,0,0,0-45.281-25.74Zm92.809,0a5.615,5.615,0,0,0,4.11-1.729,5.666,5.666,0,0,0,1.729-4.155,5.592,5.592,0,0,0-1.729-4.133,5.651,5.651,0,0,0-4.11-1.707,5.743,5.743,0,0,0-4.155,1.685,5.571,5.571,0,0,0-1.729,4.155,5.666,5.666,0,0,0,1.729,4.155A5.666,5.666,0,0,0,47.527-25.74ZM1.078-11.051a3.556,3.556,0,0,0,2.875-1.168,4.709,4.709,0,0,0,.988-3.145v-28.66h9.928a3.192,3.192,0,0,0,2.291-.854,2.955,2.955,0,0,0,.9-2.246,2.938,2.938,0,0,0-.9-2.269,3.242,3.242,0,0,0-2.291-.831H-12.578a3.242,3.242,0,0,0-2.291.831,2.938,2.938,0,0,0-.9,2.269,2.955,2.955,0,0,0,.9,2.246,3.192,3.192,0,0,0,2.291.854H-2.74v28.66a4.8,4.8,0,0,0,.966,3.122A3.457,3.457,0,0,0,1.078-11.051Z" transform="translate(824.121 584.033)" fill="#333"/>
  </g>
</svg>
