<svg xmlns="http://www.w3.org/2000/svg" width="128" height="128" viewBox="0 0 128 128">
  <g id="icon-italic" transform="translate(-169 -489)">
    <rect id="矩形_320" data-name="矩形 320" width="128" height="128" transform="translate(169 489)" fill="#f6f6f6"/>
    <path id="路径_131" data-name="路径 131" d="M15.967-.1H45.361a4.387,4.387,0,0,0,3-1.05,3.663,3.663,0,0,0,1.2-2.905A3.62,3.62,0,0,0,48.413-6.86a4.275,4.275,0,0,0-3-1.05H35.547L46.533-58.789H56.3a4.365,4.365,0,0,0,3.027-1.05A3.7,3.7,0,0,0,60.5-62.744a3.6,3.6,0,0,0-1.147-2.832,4.337,4.337,0,0,0-3-1.025H26.855a4.358,4.358,0,0,0-2.979,1.025,3.566,3.566,0,0,0-1.172,2.832,3.663,3.663,0,0,0,1.2,2.905,4.387,4.387,0,0,0,3,1.05h9.863L25.781-7.91H15.918a4.275,4.275,0,0,0-3,1.05,3.62,3.62,0,0,0-1.147,2.808,3.7,3.7,0,0,0,1.172,2.905A4.365,4.365,0,0,0,15.967-.1Z" transform="translate(197.232 586.602)" fill="#333"/>
  </g>
</svg>
