<?xml version="1.0" encoding="utf-8"?>
<!-- Generator: Adobe Illustrator 23.1.1, SVG Export Plug-In . SVG Version: 6.00 Build 0)  -->
<svg version="1.1" id="图层_1" xmlns="http://www.w3.org/2000/svg" xmlns:xlink="http://www.w3.org/1999/xlink" x="0px" y="0px"
	 viewBox="0 0 64 64" style="enable-background:new 0 0 64 64;" xml:space="preserve">
<path d="M35.5,27.5H24.6v2.2h10.9V27.5z M24.6,43.2h10.9V41H24.6V43.2z M24.6,36.5H40v-2.2H24.6V36.5z M47.6,22v-0.5l-9-9h-0.5l0,0
	l0,0H20.9c-2.5,0-4.5,2-4.5,4.5v29.5c0,2.5,2,4.5,4.5,4.5h22.1c2.5,0,4.5-2,4.5-4.5V22.2L47.6,22L47.6,22z M38.6,15.7l5.8,5.8h-5.8
	V15.7z M45.3,46.6c0,1.3-1,2.2-2.2,2.2H20.9c-1.3,0-2.2-1-2.2-2.2V17.1c0-1.3,1-2.2,2.2-2.2h15.4v9h9L45.3,46.6L45.3,46.6z"/>
</svg>
