<?xml version="1.0" encoding="utf-8"?>
<!-- Generator: Adobe Illustrator 23.1.1, SVG Export Plug-In . SVG Version: 6.00 Build 0)  -->
<svg version="1.1" id="图层_1" xmlns="http://www.w3.org/2000/svg" xmlns:xlink="http://www.w3.org/1999/xlink" x="0px" y="0px"
	 viewBox="0 0 64 64" style="enable-background:new 0 0 64 64;" xml:space="preserve">
<path d="M33,20.7h-2c-1.4,0-2.6-1.2-2.6-2.6v-2c0-1.4,1.2-2.6,2.6-2.6h2c1.4,0,2.6,1.2,2.6,2.6v2C35.6,19.5,34.4,20.7,33,20.7z
	 M35.6,33v-2c0-1.4-1.2-2.6-2.6-2.6h-2c-1.4,0-2.6,1.2-2.6,2.6v2c0,1.4,1.2,2.6,2.6,2.6h2C34.4,35.6,35.6,34.4,35.6,33z M35.6,47.9
	v-2c0-1.4-1.2-2.6-2.6-2.6h-2c-1.4,0-2.6,1.2-2.6,2.6v2c0,1.4,1.2,2.6,2.6,2.6h2C34.4,50.5,35.6,49.3,35.6,47.9z"/>
</svg>
