<svg xmlns="http://www.w3.org/2000/svg" width="128" height="128" viewBox="0 0 128 128">
  <g id="icon-copy" transform="translate(-761 -331)">
    <rect id="矩形_320" data-name="矩形 320" width="128" height="128" transform="translate(761 331)" fill="#f6f6f6"/>
    <g id="组_265" data-name="组 265" transform="translate(424.105 -1198.081)">
      <path id="路径_147" data-name="路径 147" d="M377.784,1563.12h7.682v-9.928a5.655,5.655,0,0,1,6.379-6.334h18.193v20.889q0,3.863,1.954,5.772a7.877,7.877,0,0,0,5.726,1.911h19.228V1611.1a6.459,6.459,0,0,1-1.6,4.694,6.391,6.391,0,0,1-4.784,1.638h-8.176v7.727h8.76q6.738,0,10.13-3.459t3.392-10.242V1577.45a21.878,21.878,0,0,0-.943-6.873,14.1,14.1,0,0,0-3.459-5.391l-21.293-21.7a13.646,13.646,0,0,0-5.166-3.392,18.871,18.871,0,0,0-6.379-1.011H391.3q-6.693,0-10.107,3.459t-3.414,10.246Zm38.9,3.594v-16.441l18.285,18.557H418.753a1.847,1.847,0,0,1-2.067-2.116Zm-59.789,66.305q0,6.783,3.414,10.242t10.109,3.459h39.889q6.693,0,10.107-3.459t3.415-10.242v-32.883a22.718,22.718,0,0,0-.764-6.626,13.414,13.414,0,0,0-3.414-5.1l-23.18-23.58a12.821,12.821,0,0,0-4.964-3.369,19.977,19.977,0,0,0-6.177-.809H370.418q-6.693,0-10.107,3.459t-3.416,10.24Zm7.723-.36v-57.994a6.263,6.263,0,0,1,1.617-4.627,6.454,6.454,0,0,1,4.762-1.617h13.435v23.764q0,4.4,2.156,6.514t6.424,2.111h23.135v31.849a6.4,6.4,0,0,1-1.617,4.694,6.471,6.471,0,0,1-4.807,1.64H370.956a6.33,6.33,0,0,1-4.739-1.64A6.464,6.464,0,0,1,364.618,1632.659Zm29.2-38.767a2.518,2.518,0,0,1-1.842-.584,2.593,2.593,0,0,1-.584-1.887v-21.428l23.494,23.9Z" fill="#333"/>
      <g id="组_264" data-name="组 264">
        <path id="路径_147-2" data-name="路径 147" d="M405.285,1621.159a2.574,2.574,0,0,1,1.932.786,2.635,2.635,0,0,1,.764,1.909,2.487,2.487,0,0,1-.764,1.864,2.661,2.661,0,0,1-1.932.741H376.93a2.643,2.643,0,0,1-1.954-.741,2.533,2.533,0,0,1-.741-1.864,2.685,2.685,0,0,1,.741-1.909,2.561,2.561,0,0,1,1.954-.786Z" fill="#333"/>
        <path id="路径_148" data-name="路径 148" d="M405.285,1606.694a2.657,2.657,0,0,1,1.932.741,2.485,2.485,0,0,1,.764,1.864,2.637,2.637,0,0,1-.764,1.909,2.582,2.582,0,0,1-1.932.786H376.93a2.564,2.564,0,0,1-1.954-.786,2.686,2.686,0,0,1-.741-1.909,2.531,2.531,0,0,1,.741-1.864,2.643,2.643,0,0,1,1.954-.741Z" fill="#333"/>
      </g>
    </g>
  </g>
</svg>
