<?xml version="1.0" encoding="utf-8"?>
<!-- Generator: Adobe Illustrator 24.1.2, SVG Export Plug-In . SVG Version: 6.00 Build 0)  -->
<svg version="1.1" id="图层_1" xmlns="http://www.w3.org/2000/svg" xmlns:xlink="http://www.w3.org/1999/xlink" x="0px" y="0px"
	 viewBox="0 0 64 64" style="enable-background:new 0 0 64 64;" xml:space="preserve">
<g>
	<path d="M28.6,13.8c-0.5,0.6-1,1.2-1,1.4c-0.1,0.3-0.8,0.1-2-0.5c-1-0.5-2.7-1-3.7-1.2L20,13.4l0.3,2.2c0.3,2.5-0.2,4.7-2.1,8.8
		c-3.4,7.4-4.9,10.7-5.4,12.4l-0.6,1.9l1,1.4c1.2,1.6,3,2.7,4.3,2.4c0.6-0.1,1.2,0.1,1.8,0.7c1.4,1.4,2.6,1,4.2-1.3
		c0.8-1.1,2-2.6,2.7-3.3c1.4-1.4,4.3-3.3,4.6-3c0.4,0.4-0.5,2.4-2.9,6c-2.6,3.9-4.1,7.2-4.1,8.8v0.9h13.6h13.6l0.3-2.6
		c0.3-3.4-0.3-10.4-1.3-14.1c-1.4-5.3-4.3-10.4-7.8-13.5c-2.3-2-4.1-2.9-6.4-3.1c-1.8-0.2-1.9-0.3-2.3-1.4c-0.5-1.6-2.4-3.7-3.2-3.7
		C29.8,12.7,29.1,13.2,28.6,13.8z M23.7,16.2l1.2,0.6L24,17.3c-1.3,0.8-1.8,0.6-1.8-0.6C22.2,15.4,22.2,15.4,23.7,16.2z M30.9,17.3
		c1.1,3.5,0.9,3.3,3.7,3.3c1.9,0,2.8,0.2,3.7,0.8c2,1.2,5.3,5.1,6.9,8.1c2.3,4.4,3,7.3,3.2,13.7l0.2,5.5l-10.9,0.1
		c-8.6,0.1-10.8,0-10.8-0.4c0-0.7,1.3-3.2,3.2-6c2.5-3.8,3.3-5.7,3.3-8.5c0-0.9,0.4-3,0.9-4.5c0.9-3.1,0.9-3.9-0.2-3.4
		c-0.9,0.5-2.3,3.1-2.8,5c-0.4,1.4-0.6,1.8-2.1,2.5c-2.2,1.2-5,3.7-6.8,6.3c-1.5,2.1-2.2,2.4-2.1,0.8c0.1-0.9,0-1-0.9-0.8
		c-2.7,0.7-3.2,0.6-4.2-0.4c-0.8-0.8-1-1.2-0.8-1.9c0.1-0.5,1.7-4.1,3.6-8c1.8-3.9,3.6-7.5,3.8-8.2c0.4-0.9,0.8-1.3,2.4-1.9
		c3.2-1.2,4.8-2.1,5.2-3.1C30,15.4,30.3,15.6,30.9,17.3z"/>
	<path d="M22.3,24.3c-1.2,0.7-1.8,2.1-1.4,3.1c0.3,0.8,1.2,0.7,3-0.4c1.5-0.9,2.3-2.2,1.7-3C25.3,23.3,23.6,23.5,22.3,24.3z"/>
	<path d="M15.9,36.4c-0.8,0.8-0.5,2.1,0.4,2.2c1.1,0.1,1.9-1.4,1.2-2.3C17,35.6,16.6,35.6,15.9,36.4z"/>
</g>
</svg>
