<?xml version="1.0" encoding="utf-8"?>
<!-- Generator: Adobe Illustrator 24.1.2, SVG Export Plug-In . SVG Version: 6.00 Build 0)  -->
<svg version="1.1" id="图层_1" xmlns="http://www.w3.org/2000/svg" xmlns:xlink="http://www.w3.org/1999/xlink" x="0px" y="0px"
	 viewBox="0 0 64 64" style="enable-background:new 0 0 64 64;" xml:space="preserve">
<path d="M19.6,55.5c-0.5,0-0.8-0.2-0.9-0.5c-0.1-0.4-0.1-0.8,0.1-1l8.5-9.9c-1.5-1.4-2.3-3.2-2.3-5.2c0-1.5,0.4-2.9,1.1-4
	c-2.6-1.9-4.2-5-4.2-8.2c0-4.5,2.8-8.3,7.1-9.7c-0.8-0.8-1.3-1.9-1.3-3.1c0-2.4,2-4.4,4.4-4.4s4.4,2,4.4,4.4c0,1.2-0.5,2.2-1.3,3.1
	c4.3,1.4,7.1,5.2,7.1,9.7c0,3.3-1.6,6.3-4.2,8.3c0.8,1.4,1.1,2.6,1.1,3.9c0,2-0.8,3.9-2.3,5.2l8.3,10c0.2,0.3,0.3,0.7,0.1,1
	c-0.1,0.2-0.5,0.5-0.9,0.5H19.6z M29.3,13.9c0,1.5,1.2,2.7,2.7,2.7s2.7-1.2,2.7-2.7s-1.2-2.7-2.7-2.7S29.3,12.4,29.3,13.9z
	 M30.3,28.4v5.2h3.5v-5.2h5.2V25h-5.2v-5.2h-3.5V25h-5.2v3.5H30.3z M42.8,53.8l-7.9-9.4c-0.2-0.2-0.2-0.4-0.2-0.6s0.1-0.4,0.3-0.5
	c1.5-1,2.4-2.7,2.4-4.5c0-1.2-0.3-2.3-1-3.2c-1.4,0.6-2.8,1-4.4,1c-1.6,0-3.1-0.4-4.4-1c-0.6,0.9-1,2-1,3.2c0,1.8,0.9,3.5,2.4,4.5
	c0.2,0.1,0.3,0.3,0.3,0.5c0,0.2-0.1,0.4-0.2,0.6l-7.9,9.4C21.2,53.8,42.8,53.8,42.8,53.8z"/>
</svg>
