<svg xmlns="http://www.w3.org/2000/svg" width="128" height="128" viewBox="0 0 128 128">
  <g id="icon-blockquote" transform="translate(-1057 -489)">
    <rect id="矩形_320" data-name="矩形 320" width="128" height="128" transform="translate(1057 489)" fill="#f6f6f6"/>
    <path id="路径_162" data-name="路径 162" d="M-40.406,6.375H42.8A3.557,3.557,0,0,0,45.375,5.32a3.5,3.5,0,0,0,1.078-2.6A3.573,3.573,0,0,0,45.375.094,3.518,3.518,0,0,0,42.8-.984h-83.2A3.573,3.573,0,0,0-43.031.094a3.573,3.573,0,0,0-1.078,2.625,3.5,3.5,0,0,0,1.078,2.6A3.613,3.613,0,0,0-40.406,6.375Zm0-23.2H42.8a3.518,3.518,0,0,0,2.578-1.078,3.573,3.573,0,0,0,1.078-2.625,3.5,3.5,0,0,0-1.078-2.6A3.557,3.557,0,0,0,42.8-24.187h-83.2a3.613,3.613,0,0,0-2.625,1.055,3.5,3.5,0,0,0-1.078,2.6,3.573,3.573,0,0,0,1.078,2.625A3.573,3.573,0,0,0-40.406-16.828Zm58.219-23.25H42.8a3.557,3.557,0,0,0,2.578-1.055,3.5,3.5,0,0,0,1.078-2.6,3.573,3.573,0,0,0-1.078-2.625A3.518,3.518,0,0,0,42.8-47.437H17.813a3.5,3.5,0,0,0-2.6,1.078,3.613,3.613,0,0,0-1.055,2.625,3.535,3.535,0,0,0,1.055,2.6A3.535,3.535,0,0,0,17.813-40.078Zm0-23.25H42.8a3.557,3.557,0,0,0,2.578-1.055,3.5,3.5,0,0,0,1.078-2.6,3.5,3.5,0,0,0-1.078-2.6A3.557,3.557,0,0,0,42.8-70.641H17.813a3.535,3.535,0,0,0-2.6,1.055,3.535,3.535,0,0,0-1.055,2.6,3.535,3.535,0,0,0,1.055,2.6A3.535,3.535,0,0,0,17.813-63.328ZM-4.219-37.453A11.214,11.214,0,0,0,1.031-38.7a9.8,9.8,0,0,0,3.82-3.492,9.665,9.665,0,0,0,1.43-5.3A9.3,9.3,0,0,0,3.656-54.4,9,9,0,0,0-2.953-57,7.54,7.54,0,0,0-7.57-55.594a7.641,7.641,0,0,0-2.7,4.266l.8.188a15,15,0,0,1,1.852-6.773,12.823,12.823,0,0,1,4.477-4.664,13.057,13.057,0,0,1,6.469-1.875,3.178,3.178,0,0,0,2.227-.914A2.9,2.9,0,0,0,6.422-67.5a2.791,2.791,0,0,0-1.148-2.391,4.659,4.659,0,0,0-2.836-.844,17.617,17.617,0,0,0-9.3,2.6A20.08,20.08,0,0,0-13.8-61.055a19.55,19.55,0,0,0-2.648,10.148,13.506,13.506,0,0,0,3.539,9.773A11.593,11.593,0,0,0-4.219-37.453Zm-27.469,0a11.214,11.214,0,0,0,5.25-1.242,9.8,9.8,0,0,0,3.82-3.492,9.665,9.665,0,0,0,1.43-5.3A9.3,9.3,0,0,0-23.812-54.4,9.063,9.063,0,0,0-30.469-57a7.566,7.566,0,0,0-4.594,1.406,7.375,7.375,0,0,0-2.672,4.266l.75.188a15.426,15.426,0,0,1,1.9-6.773,12.636,12.636,0,0,1,4.477-4.641,13.574,13.574,0,0,1,6.469-1.9,3.123,3.123,0,0,0,2.18-.914,2.9,2.9,0,0,0,.867-2.133,2.791,2.791,0,0,0-1.148-2.391,4.581,4.581,0,0,0-2.789-.844,17.7,17.7,0,0,0-9.352,2.6A19.887,19.887,0,0,0-41.3-61.055a19.685,19.685,0,0,0-2.625,10.148,13.559,13.559,0,0,0,3.516,9.773A11.572,11.572,0,0,0-31.687-37.453Z" transform="translate(1121 587)" fill="#333"/>
  </g>
</svg>
