<svg xmlns="http://www.w3.org/2000/svg" width="128" height="128" viewBox="0 0 128 128">
  <g id="icon-die-1" transform="translate(-21 -173)">
    <rect id="矩形_320" data-name="矩形 320" width="128" height="128" transform="translate(21 173)" fill="rgba(246,246,246,0)"/>
    <path id="路径_99" data-name="路径 99" d="M26.66,9.57H82.617q7.422,0,11.157-3.711T97.51-5.127v-56.3q0-7.275-3.735-10.986T82.617-76.123H26.66q-7.373,0-11.133,3.687t-3.76,11.011v56.3q0,7.324,3.76,11.011T26.66,9.57ZM27,1.221A6.891,6.891,0,0,1,21.948-.537a7.03,7.03,0,0,1-1.782-5.225V-60.791a7.03,7.03,0,0,1,1.782-5.225A6.891,6.891,0,0,1,27-67.773H82.275a6.978,6.978,0,0,1,5.078,1.758,6.973,6.973,0,0,1,1.807,5.225V-5.762A6.973,6.973,0,0,1,87.354-.537a6.978,6.978,0,0,1-5.078,1.758ZM54.688-25.83A7.064,7.064,0,0,0,59.985-28a7.289,7.289,0,0,0,2.222-5.347,7.05,7.05,0,0,0-2.222-5.273,7.357,7.357,0,0,0-5.3-2.148,7.274,7.274,0,0,0-5.273,2.148,7.089,7.089,0,0,0-2.2,5.273,7.249,7.249,0,0,0,2.2,5.322A7.192,7.192,0,0,0,54.688-25.83Z" transform="translate(30.232 270.123)" fill="#333"/>
  </g>
</svg>
