<svg xmlns="http://www.w3.org/2000/svg" width="128" height="128" viewBox="0 0 128 128">
  <g id="icon-comment" transform="translate(-465 -15)">
    <path id="路径_144" data-name="路径 144" d="M0,0H128V128H0Z" transform="translate(465 15)" fill="#f6f6f6"/>
    <path id="路径_143" data-name="路径 143" d="M-20.133,17.109a6.187,6.187,0,0,0,3.281-.914A26.8,26.8,0,0,0-13.2,13.359L2.086-.187H29.6A23.839,23.839,0,0,0,40.8-2.6a16.181,16.181,0,0,0,6.984-7.008A23.922,23.922,0,0,0,50.18-20.766V-54.984a23.922,23.922,0,0,0-2.391-11.156A16.316,16.316,0,0,0,40.8-73.172a23.648,23.648,0,0,0-11.2-2.437H-27.258A23.728,23.728,0,0,0-38.414-73.2a16.287,16.287,0,0,0-7.008,7.031,23.872,23.872,0,0,0-2.414,11.18v34.219a23.872,23.872,0,0,0,2.414,11.18,16.181,16.181,0,0,0,6.984,7.008A23.557,23.557,0,0,0-27.4-.187h1.969v11.25a6.615,6.615,0,0,0,1.383,4.406A4.836,4.836,0,0,0-20.133,17.109Zm2.016-9.094v-12.7a3.641,3.641,0,0,0-.844-2.7,3.721,3.721,0,0,0-2.672-.82H-27.07q-6.469,0-9.586-3.234t-3.117-9.469V-54.844q0-6.234,3.117-9.445T-27.07-67.5H29.414q6.469,0,9.586,3.211t3.117,9.445v33.938q0,6.234-3.117,9.469T29.414-8.2H1.664a9.053,9.053,0,0,0-3.141.445,7.594,7.594,0,0,0-2.531,1.8Zm-3.422-29.3H7.711a2.526,2.526,0,0,0,1.852-.773,2.526,2.526,0,0,0,.773-1.852,2.717,2.717,0,0,0-.773-1.969,2.49,2.49,0,0,0-1.852-.8h-29.25a2.49,2.49,0,0,0-1.852.8,2.717,2.717,0,0,0-.773,1.969,2.526,2.526,0,0,0,.773,1.852A2.526,2.526,0,0,0-21.539-21.281Zm0-14.25H23.32a2.66,2.66,0,0,0,1.922-.773,2.543,2.543,0,0,0,.8-1.9,2.619,2.619,0,0,0-.8-1.922,2.619,2.619,0,0,0-1.922-.8H-21.539a2.49,2.49,0,0,0-1.852.8,2.66,2.66,0,0,0-.773,1.922,2.581,2.581,0,0,0,.773,1.9A2.526,2.526,0,0,0-21.539-35.531Zm0-14.25H23.32a2.66,2.66,0,0,0,1.922-.773,2.543,2.543,0,0,0,.8-1.9,2.566,2.566,0,0,0-.8-1.875,2.619,2.619,0,0,0-1.922-.8H-21.539a2.49,2.49,0,0,0-1.852.8,2.6,2.6,0,0,0-.773,1.875,2.581,2.581,0,0,0,.773,1.9A2.526,2.526,0,0,0-21.539-49.781Z" transform="translate(527.836 111.609)" fill="#333"/>
  </g>
</svg>
